SplineFontDB: 3.0
FontName: PaytoneOne
FullName: Paytone One
FamilyName: Paytone One
Weight: Book
Copyright: Copyright (c) 2011 by vernon adams. All rights reserved.
Version: 1.000
ItalicAngle: 0
UnderlinePosition: -104
UnderlineWidth: 102
Ascent: 1638
Descent: 410
sfntRevision: 0x00010000
LayerCount: 2
Layer: 0 0 "Back"  1
Layer: 1 0 "Fore"  0
XUID: [1021 759 1887733602 1204196]
FSType: 0
OS2Version: 2
OS2_WeightWidthSlopeOnly: 0
OS2_UseTypoMetrics: 1
CreationTime: 1304382703
ModificationTime: 1336244019
PfmFamily: 81
TTFWeight: 400
TTFWidth: 5
LineGap: 0
VLineGap: 0
Panose: 0 0 0 0 0 0 0 0 0 0
OS2TypoAscent: 642
OS2TypoAOffset: 1
OS2TypoDescent: -170
OS2TypoDOffset: 1
OS2TypoLinegap: 0
OS2WinAscent: -75
OS2WinAOffset: 1
OS2WinDescent: -301
OS2WinDOffset: 1
HheadAscent: -75
HheadAOffset: 1
HheadDescent: 301
HheadDOffset: 1
OS2SubXSize: 1434
OS2SubYSize: 1331
OS2SubXOff: 0
OS2SubYOff: 287
OS2SupXSize: 1434
OS2SupYSize: 1331
OS2SupXOff: 0
OS2SupYOff: 977
OS2StrikeYSize: 102
OS2StrikeYPos: 512
OS2Vendor: 'pyrs'
OS2CodePages: 00000001.00000000
OS2UnicodeRanges: 00000003.08000000.14000000.00000000
Lookup: 258 0 0 "'kern' Horizontal Kerning in Latin lookup 0"  {"'kern' Horizontal Kerning in Latin lookup 0 per glyph data 0"  "'kern' Horizontal Kerning in Latin lookup 0 per glyph data 1"  "'kern' Horizontal Kerning in Latin lookup 0 kerning class 2"  } ['kern' ('latn' <'dflt' > ) ]
MarkAttachClasses: 1
DEI: 91125
KernClass2: 42+ 33 "'kern' Horizontal Kerning in Latin lookup 0 kerning class 2" 
 73 A Agrave Aacute Acircumflex Atilde Adieresis Aring Amacron Abreve Aogonek
 47 C Ccedilla Cacute Ccircumflex Cdotaccent Ccaron
 19 D Eth Dcaron Dcroat
 84 E AE Egrave Eacute Ecircumflex Edieresis Emacron Ebreve Edotaccent Eogonek Ecaron OE
 44 G Gcircumflex Gbreve Gdotaccent Gcommaaccent
 139 H I M N Igrave Iacute Icircumflex Idieresis Ntilde Hcircumflex Hbar Itilde Imacron Ibreve Iogonek Idotaccent Nacute Ncommaaccent Ncaron Eng
 16 J IJ Jcircumflex
 14 K Kcommaaccent

StartChar: .notdef
Encoding: 65536 -1 0
Width: 672
VWidth: 1993
Flags: W
HStem: 56 8<85 535> 1301 8<85 535>
VStem: 78 7<64 1301> 535 7<64 1301>
LayerCount: 2
Fore
SplineSet
542 1309 m 1
 542 56 l 1
 78 56 l 1
 78 1309 l 1
 542 1309 l 1
535 1301 m 1
 85 1301 l 1
 85 64 l 1
 535 64 l 1
 535 1301 l 1
EndSplineSet
EndChar

StartChar: exclam
Encoding: 33 33 7
Width: 553
VWidth: 1993
GlyphClass: 2
Flags: HW
HStem: 31 335<157 416>
VStem: 94 386<91 303> 102 357<1039 1356>
LayerCount: 2
Fore
SplineSet
386 552 m 1xa0
 177 552 l 1
 102 1082 l 1
 102 1356 l 1
 459 1356 l 1
 459 1082 l 1
 386 552 l 1xa0
291 31 m 0
 188 31 94 90 94 197 c 0
 94 299 178 366 288 366 c 0
 395 366 480 296 480 197 c 0xc0
 480 86 391 31 291 31 c 0
EndSplineSet
EndChar

StartChar: quotedbl
Encoding: 34 34 8
Width: 717
VWidth: 2017
GlyphClass: 2
Flags: HW
LayerCount: 2
Fore
SplineSet
615 1065 m 1
 479 1065 l 1
 443 1495 l 1
 664 1495 l 1
 615 1065 l 1
242 1065 m 1
 106 1065 l 1
 72 1495 l 1
 291 1495 l 1
 242 1065 l 1
EndSplineSet
EndChar

StartChar: numbersign
Encoding: 35 35 9
Width: 928
VWidth: 1993
GlyphClass: 2
Flags: HW
LayerCount: 2
Fore
SplineSet
221 56 m 1
 109 56 l 1
 226 538 l 1
 73 538 l 1
 80 598 l 1
 239 598 l 1
 290 801 l 1
 109 801 l 1
 117 865 l 1
 304 865 l 1
 401 1320 l 1
 498 1320 l 1
 401 865 l 1
 613 865 l 1
 719 1320 l 1
 834 1320 l 1
 723 865 l 1
 867 865 l 1
 859 801 l 1
 704 801 l 1
 656 598 l 1
 831 598 l 1
 823 538 l 1
 639 538 l 1
 538 56 l 1
 445 56 l 1
 545 538 l 1
 332 538 l 1
 221 56 l 1
387 801 m 1
 344 598 l 1
 557 598 l 1
 599 801 l 1
 387 801 l 1
EndSplineSet
EndChar

StartChar: dollar
Encoding: 36 36 10
Width: 1018
VWidth: 1993
GlyphClass: 2
Flags: HW
LayerCount: 2
Fore
SplineSet
585 807 m 0
 776 734 970 644 970 387 c 0
 970 174 784 50 589 37 c 0
 576 36 l 1
 576 -122 l 1
 454 -122 l 1
 454 25 l 1
 442 26 l 0
 315 39 198 72 109 124 c 1
 187 313 l 1
 275 284 350 262 440 258 c 0
 454 257 l 1
 454 569 l 1
 444 571 l 0
 243 625 87 711 82 965 c 1
 82 1216 229 1319 442 1349 c 0
 454 1350 l 1
 454 1512 l 1
 576 1512 l 1
 576 1355 l 1
 588 1354 l 0
 689 1344 785 1313 885 1255 c 1
 806 1077 l 1
 733 1101 669 1125 592 1138 c 0
 576 1140 l 1
 576 810 l 1
 585 807 l 0
454 843 m 1
 454 1133 l 1
 416 1111 l 0
 379 1090 334 1059 334 986 c 0
 334 911 373 880 418 859 c 0
 454 843 l 1
576 521 m 1
 576 264 l 1
 612 279 l 0
 651 296 706 320 706 398 c 0
 706 476 634 502 593 515 c 0
 576 521 l 1
EndSplineSet
EndChar

StartChar: percent
Encoding: 37 37 11
Width: 1664
VWidth: 1993
GlyphClass: 2
Flags: HW
LayerCount: 2
Fore
SplineSet
728 56 m 1
 659 56 l 1
 952 1320 l 1
 1024 1320 l 1
 728 56 l 1
981 381 m 0
 981 591 1101 738 1293 738 c 0
 1491 738 1616 588 1616 381 c 0
 1616 171 1492 26 1293 26 c 0
 1096 26 981 168 981 381 c 0
1430 381 m 0
 1430 465 1401 596 1293 596 c 0
 1183 596 1158 467 1158 381 c 0
 1158 295 1183 164 1293 164 c 0
 1403 164 1430 297 1430 381 c 0
82 1001 m 0
 82 1213 207 1356 408 1356 c 0
 600 1356 717 1207 717 1001 c 0
 717 789 598 646 403 646 c 0
 201 646 82 790 82 1001 c 0
540 1001 m 0
 540 1087 511 1216 403 1216 c 0
 291 1216 268 1086 268 1001 c 0
 268 917 294 782 403 782 c 0
 514 782 540 915 540 1001 c 0
EndSplineSet
EndChar

StartChar: ampersand
Encoding: 38 38 12
Width: 1230
VWidth: 1993
GlyphClass: 2
Flags: HW
LayerCount: 2
Fore
SplineSet
367 748 m 1
 355 762 l 2
 270 861 217 956 217 1041 c 0
 217 1241 408 1356 611 1356 c 0
 810 1356 955 1249 955 1045 c 0
 955 867 842 769 718 711 c 0
 702 703 l 1
 713 689 l 0
 757 631 808 558 857 500 c 0
 867 488 l 1
 1016 657 l 1
 1157 507 l 1
 1110 421 1059 360 997 307 c 0
 986 297 l 1
 1196 56 l 1
 885 56 l 1
 797 167 l 1
 787 158 l 0
 711 91 609 26 485 26 c 0
 248 26 80 153 80 396 c 0
 80 599 205 668 351 739 c 0
 367 748 l 1
470 572 m 1
 459 566 l 2
 403 532 367 483 367 410 c 0
 367 325 418 258 501 258 c 0
 562 258 605 281 639 318 c 0
 647 327 l 1
 470 572 l 1
603 864 m 1
 611 868 l 2
 672 897 725 936 725 1038 c 0
 725 1109 679 1157 613 1157 c 0
 540 1157 492 1114 492 1038 c 0
 492 952 556 905 597 870 c 0
 603 864 l 1
EndSplineSet
EndChar

StartChar: quotesingle
Encoding: 39 39 13
Width: 339
VWidth: 2017
GlyphClass: 2
Flags: HW
LayerCount: 2
Fore
SplineSet
236 1065 m 1
 100 1065 l 1
 65 1495 l 1
 285 1495 l 1
 236 1065 l 1
EndSplineSet
EndChar

StartChar: parenleft
Encoding: 40 40 14
Width: 720
VWidth: 1992
GlyphClass: 2
Flags: HW
LayerCount: 2
Fore
SplineSet
676 1333 m 1
 432 1270 393 952 393 668 c 0
 393 377 428 50 676 -15 c 1
 676 -209 l 1
 294 -154 54 169 54 668 c 0
 54 1169 298 1469 676 1527 c 1
 676 1333 l 1
EndSplineSet
EndChar

StartChar: parenright
Encoding: 41 41 15
Width: 720
VWidth: 1992
GlyphClass: 2
Flags: HW
LayerCount: 2
Fore
SplineSet
59 1333 m 1
 59 1527 l 1
 438 1467 681 1164 681 668 c 0
 681 166 439 -153 59 -209 c 1
 59 -15 l 1
 306 48 342 381 342 668 c 0
 342 950 303 1273 59 1333 c 1
EndSplineSet
EndChar

StartChar: asterisk
Encoding: 42 42 16
Width: 956
VWidth: 2004
GlyphClass: 2
Flags: HW
LayerCount: 2
Fore
SplineSet
310 536 m 1
 163 655 l 1
 384 896 l 1
 82 1033 l 1
 159 1187 l 1
 426 1015 l 1
 407 1361 l 1
 556 1361 l 1
 533 1016 l 1
 793 1191 l 1
 876 1033 l 1
 571 897 l 1
 791 654 l 1
 642 535 l 1
 475 831 l 1
 310 536 l 1
EndSplineSet
EndChar

StartChar: plus
Encoding: 43 43 17
Width: 981
VWidth: 1986
GlyphClass: 2
Flags: HW
LayerCount: 2
Fore
SplineSet
512 49 m 1
 464 49 l 1
 464 489 l 1
 66 489 l 1
 66 541 l 1
 448 541 l 1
 448 977 l 1
 500 977 l 1
 500 541 l 1
 936 541 l 1
 907 489 l 1
 512 489 l 1
 512 49 l 1
EndSplineSet
EndChar

StartChar: comma
Encoding: 44 44 18
Width: 533
VWidth: 1966
GlyphClass: 2
Flags: HW
HStem: -302 170<101 261> 30 309<101 284>
VStem: 101 342<-184 -130 30 339> 284 159<-108 30>
LayerCount: 2
Fore
SplineSet
223 -295 m 0xe0
 189 -299 146 -301 101 -302 c 1
 101 -130 l 1xe0
 121 -131 138 -132 158 -132 c 0
 252 -132 284 -90 284 1 c 0
 284 30 l 1xd0
 101 30 l 1
 101 339 l 1
 446 339 l 1
 443 168 l 0
 438 -104 439 -269 223 -295 c 0xe0
EndSplineSet
EndChar

StartChar: hyphen
Encoding: 45 45 19
Width: 666
VWidth: 1987
GlyphClass: 2
Flags: HW
HStem: 442 175<105 575>
VStem: 105 470<442 616>
LayerCount: 2
Fore
SplineSet
575 442 m 1
 105 442 l 1
 105 616 l 1
 575 616 l 1
 575 442 l 1
EndSplineSet
EndChar

StartChar: period
Encoding: 46 46 20
Width: 503
VWidth: 1973
GlyphClass: 2
Flags: HW
LayerCount: 2
Fore
SplineSet
258 345 m 0
 363 345 450 273 450 176 c 0
 450 75 366 5 258 5 c 0
 148 5 66 74 66 176 c 0
 66 275 152 345 258 345 c 0
EndSplineSet
EndChar

StartChar: slash
Encoding: 47 47 21
Width: 585
VWidth: 1994
GlyphClass: 2
Flags: HW
HStem: 43 20G<69 207> 1346 19G<374 515>
VStem: 69 445
LayerCount: 2
Fore
SplineSet
69 43 m 1
 378 1365 l 1
 515 1365 l 1
 202 43 l 1
 69 43 l 1
EndSplineSet
EndChar

StartChar: zero
Encoding: 48 48 22
Width: 1274
VWidth: 1993
GlyphClass: 2
Flags: HW
LayerCount: 2
Fore
SplineSet
91 692 m 0
 91 1003 241 1210 446 1298 c 0
 511 1327 579 1342 650 1342 c 0
 967 1342 1209 1053 1209 692 c 0
 1209 329 971 40 650 40 c 0
 308 40 91 316 91 692 c 0
650 309 m 0
 820 309 870 533 870 692 c 0
 870 852 823 1073 650 1073 c 0
 473 1073 428 852 428 692 c 0
 428 532 476 309 650 309 c 0
EndSplineSet
EndChar

StartChar: one
Encoding: 49 49 23
Width: 790
VWidth: 1993
GlyphClass: 2
Flags: HW
LayerCount: 2
Fore
SplineSet
266 1002 m 1
 101 990 l 1
 101 1187 l 1
 242 1194 359 1251 432 1315 c 1
 574 1315 l 1
 574 289 l 1
 739 289 l 1
 739 56 l 1
 101 56 l 1
 101 289 l 1
 266 289 l 1
 266 1002 l 1
EndSplineSet
EndChar

StartChar: two
Encoding: 50 50 24
Width: 920
VWidth: 1993
GlyphClass: 2
Flags: HW
LayerCount: 2
Fore
SplineSet
87 292 m 1
 246 442 395 602 480 797 c 0
 500 843 510 883 510 920 c 0
 510 1020 450 1058 386 1058 c 0
 312 1058 209 1017 152 993 c 1
 72 1230 l 1
 204 1283 328 1328 474 1328 c 0
 692 1328 838 1166 838 922 c 0
 838 713 696 575 572 472 c 1
 519 423 464 381 405 338 c 0
 332 285 l 1
 797 285 l 1
 797 56 l 1
 87 56 l 1
 87 292 l 1
EndSplineSet
EndChar

StartChar: three
Encoding: 51 51 25
Width: 931
VWidth: 1993
GlyphClass: 2
Flags: HW
LayerCount: 2
Fore
SplineSet
231 613 m 1
 231 799 l 1
 359 801 537 819 537 962 c 0
 537 1058 474 1081 405 1081 c 0
 338 1081 244 1064 130 1031 c 1
 76 1236 l 1
 217 1299 345 1329 459 1329 c 0
 625 1329 803 1228 803 1056 c 0
 803 932 748 836 630 760 c 1
 591 731 l 1
 634 709 l 1
 766 653 862 553 862 379 c 0
 862 149 659 35 441 35 c 0
 345 35 219 57 76 102 c 1
 130 332 l 1
 227 296 313 279 387 279 c 0
 470 279 547 307 547 420 c 0
 547 599 365 612 231 613 c 1
EndSplineSet
EndChar

StartChar: four
Encoding: 52 52 26
Width: 1155
VWidth: 1993
GlyphClass: 2
Flags: HW
LayerCount: 2
Fore
SplineSet
575 56 m 1
 575 376 l 1
 58 376 l 1
 58 613 l 1
 543 1315 l 1
 906 1315 l 1
 906 591 l 1
 1094 591 l 1
 1094 374 l 1
 906 374 l 1
 906 56 l 1
 575 56 l 1
575 591 m 1
 575 1107 l 1
 265 591 l 1
 575 591 l 1
EndSplineSet
EndChar

StartChar: five
Encoding: 53 53 27
Width: 957
VWidth: 1992
GlyphClass: 2
Flags: HW
LayerCount: 2
Fore
SplineSet
369 830 m 0
 428 850 478 875 545 875 c 0
 741 875 902 715 902 461 c 0
 902 202 688 30 438 30 c 0
 353 30 238 55 113 104 c 1
 133 325 l 1
 242 290 344 274 433 274 c 0
 529 274 587 356 587 462 c 0
 587 554 541 636 453 636 c 0
 404 636 348 609 277 561 c 1
 105 636 l 1
 152 1314 l 1
 794 1314 l 1
 772 1090 l 1
 359 1090 l 1
 331 817 l 1
 369 830 l 0
EndSplineSet
EndChar

StartChar: six
Encoding: 54 54 28
Width: 1139
VWidth: 1993
GlyphClass: 2
Flags: HW
LayerCount: 2
Fore
SplineSet
632 1334 m 0
 788 1334 899 1282 1013 1218 c 1
 938 1012 l 1
 857 1046 769 1086 672 1086 c 0
 470 1086 433 887 411 717 c 0
 401 634 l 1
 456 692 l 0
 523 763 586 821 699 823 c 1
 929 823 1079 695 1079 453 c 0
 1079 216 844 42 617 42 c 0
 289 42 91 280 91 649 c 0
 91 1030 303 1334 632 1334 c 0
416 577 m 1
 417 566 l 2
 431 454 446 267 597 267 c 0
 698 267 781 336 781 453 c 0
 781 560 706 624 614 624 c 0
 537 624 478 606 425 581 c 0
 416 577 l 1
EndSplineSet
EndChar

StartChar: seven
Encoding: 55 55 29
Width: 818
VWidth: 1993
GlyphClass: 2
Flags: HW
LayerCount: 2
Fore
SplineSet
406 32 m 1
 120 160 l 1
 466 1086 l 1
 69 1086 l 1
 69 1314 l 1
 777 1314 l 1
 777 1024 l 1
 406 32 l 1
EndSplineSet
EndChar

StartChar: eight
Encoding: 56 56 30
Width: 1140
VWidth: 1993
GlyphClass: 2
Flags: HW
LayerCount: 2
Fore
SplineSet
834 768 m 1
 967 701 1080 608 1080 417 c 0
 1080 140 851 30 583 30 c 0
 322 30 82 134 82 396 c 0
 82 558 181 620 306 670 c 0
 307 670 l 1
 348 696 l 1
 319 722 l 1
 227 799 180 891 180 1018 c 0
 180 1229 369 1332 581 1332 c 0
 783 1332 980 1250 980 1056 c 0
 980 927 920 863 834 819 c 1
 787 793 l 1
 834 768 l 1
483 611 m 1
 477 605 l 2
 436 560 407 504 407 417 c 0
 407 304 489 245 584 245 c 0
 656 245 762 270 762 377 c 0
 762 502 636 545 574 571 c 1
 548 583 520 598 492 608 c 0
 483 611 l 1
666 831 m 1
 672 838 l 2
 712 883 740 935 740 1006 c 0
 740 1111 678 1176 583 1176 c 0
 509 1176 420 1150 420 1045 c 0
 420 904 582 862 658 834 c 0
 666 831 l 1
EndSplineSet
EndChar

StartChar: nine
Encoding: 57 57 31
Width: 1118
VWidth: 1993
GlyphClass: 2
Flags: HW
LayerCount: 2
Fore
SplineSet
743 722 m 1
 698 677 l 2
 631 612 586 561 472 561 c 0
 240 561 82 685 82 927 c 0
 82 1186 308 1331 554 1331 c 0
 877 1331 1051 1053 1051 691 c 0
 1051 324 839 49 522 49 c 0
 372 49 262 102 150 164 c 1
 220 360 l 1
 299 326 380 289 481 289 c 0
 654 289 741 432 743 656 c 0
 743 722 l 1
736 776 m 1
 735 787 l 2
 723 923 703 1116 554 1116 c 0
 451 1116 369 1047 369 927 c 0
 369 806 443 730 552 730 c 0
 623 730 676 752 726 772 c 0
 736 776 l 1
EndSplineSet
EndChar

StartChar: colon
Encoding: 58 58 32
Width: 562
VWidth: 1986
GlyphClass: 2
Flags: HW
LayerCount: 2
Fore
SplineSet
291 54 m 0
 188 54 95 112 95 218 c 0
 95 318 181 389 289 389 c 0
 394 389 479 316 479 218 c 0
 479 108 390 54 291 54 c 0
289 979 m 0
 394 979 479 906 479 808 c 0
 479 708 396 639 289 639 c 0
 179 639 95 707 95 808 c 0
 95 908 181 979 289 979 c 0
EndSplineSet
EndChar

StartChar: semicolon
Encoding: 59 59 33
Width: 541
VWidth: 1979
GlyphClass: 2
Flags: HW
LayerCount: 2
Fore
SplineSet
339 -255 m 0
 285 -282 205 -289 111 -290 c 1
 111 -118 l 1
 131 -119 148 -119 167 -119 c 0
 261 -119 295 -79 295 14 c 0
 295 42 l 1
 111 42 l 1
 111 352 l 1
 456 352 l 1
 454 259 l 1
 451 30 463 -192 339 -255 c 0
280 972 m 0
 385 972 470 899 470 801 c 0
 470 701 387 632 280 632 c 0
 170 632 86 699 86 801 c 0
 86 901 173 972 280 972 c 0
EndSplineSet
EndChar

StartChar: less
Encoding: 60 60 34
Width: 800
VWidth: 1990
GlyphClass: 2
Flags: HW
LayerCount: 2
Fore
SplineSet
68 479 m 1
 68 780 l 1
 702 1171 l 1
 702 942 l 1
 140 619 l 1
 702 312 l 1
 702 63 l 1
 68 479 l 1
EndSplineSet
EndChar

StartChar: equal
Encoding: 61 61 35
Width: 762
VWidth: 1986
GlyphClass: 2
Flags: HW
LayerCount: 2
Fore
SplineSet
660 355 m 1
 118 355 l 1
 118 416 l 1
 660 416 l 1
 660 355 l 1
660 620 m 1
 118 620 l 1
 118 683 l 1
 660 683 l 1
 660 620 l 1
EndSplineSet
EndChar

StartChar: greater
Encoding: 62 62 36
Width: 802
VWidth: 1990
GlyphClass: 2
Flags: HW
LayerCount: 2
Fore
SplineSet
116 63 m 1
 116 312 l 1
 678 619 l 1
 116 942 l 1
 116 1171 l 1
 750 780 l 1
 750 479 l 1
 116 63 l 1
EndSplineSet
EndChar

StartChar: question
Encoding: 63 63 37
Width: 897
VWidth: 1994
GlyphClass: 2
Flags: HW
LayerCount: 2
Fore
SplineSet
115 1067 m 1
 94 1305 l 1
 226 1357 342 1382 437 1382 c 0
 648 1382 848 1270 848 1044 c 0
 848 817 649 785 501 688 c 0
 459 659 441 624 440 556 c 1
 240 556 l 1
 223 609 l 1
 218 629 213 660 213 681 c 1
 215 859 360 856 469 956 c 0
 484 970 497 989 497 1013 c 0
 497 1087 425 1105 342 1105 c 0
 258 1105 179 1092 115 1067 c 1
348 366 m 0
 435 366 508 295 508 197 c 0
 508 95 437 26 348 26 c 0
 242 26 159 94 159 197 c 0
 159 296 246 366 348 366 c 0
EndSplineSet
EndChar

StartChar: at
Encoding: 64 64 38
Width: 1616
VWidth: 1995
GlyphClass: 2
Flags: HW
LayerCount: 2
Fore
SplineSet
1139 615 m 1
 1143 611 l 2
 1169 582 1199 559 1235 559 c 0
 1363 559 1373 738 1373 831 c 0
 1373 1132 1187 1284 848 1284 c 0
 529 1284 284 1076 284 737 c 0
 284 397 526 205 839 205 c 0
 970 205 1092 233 1201 287 c 1
 1283 139 l 1
 1161 69 1029 28 839 28 c 0
 494 28 257 199 149 452 c 0
 112 538 94 633 94 736 c 0
 94 1079 291 1296 532 1398 c 0
 623 1437 728 1456 846 1456 c 0
 1261 1456 1565 1259 1565 835 c 0
 1565 594 1476 420 1259 420 c 0
 1134 420 1052 465 1001 552 c 0
 975 595 l 1
 953 550 l 0
 917 476 854 422 752 422 c 0
 584 422 473 567 473 750 c 0
 473 927 593 1067 754 1067 c 0
 886 1067 1013 1062 1139 1051 c 1
 1139 615 l 1
817 924 m 0
 720 924 663 838 663 745 c 0
 663 652 729 584 817 584 c 0
 900 584 968 650 968 739 c 0
 968 924 l 1
 817 924 l 0
EndSplineSet
EndChar

StartChar: A
Encoding: 65 65 39
Width: 1284
VWidth: 1994
GlyphClass: 2
Flags: HW
HStem: 316 184<486 797>
LayerCount: 2
Fore
SplineSet
407 57 m 1
 36 57 l 1
 385 1351 l 1
 900 1351 l 1
 1265 57 l 1
 877 57 l 1
 829 316 l 1
 459 316 l 1
 407 57 l 1
644 1256 m 1
 486 500 l 1
 797 500 l 1
 644 1256 l 1
EndSplineSet
EndChar

StartChar: B
Encoding: 66 66 40
Width: 1330
VWidth: 1992
GlyphClass: 2
Flags: HW
LayerCount: 2
Fore
SplineSet
1032 761 m 0
 818 726 l 1
 1034 704 l 0
 1194 689 1283 589 1283 408 c 0
 1283 143 1025 -4 764 -4 c 0
 634 -4 435 5 157 23 c 1
 157 1320 l 1
 771 1320 l 0
 997 1320 1221 1233 1221 1021 c 0
 1221 866 1157 780 1032 761 c 0
523 255 m 1
 536 255 l 2
 553 254 572 253 590 253 c 0
 729 253 l 0
 831 253 920 322 920 449 c 0
 920 594 819 656 706 656 c 0
 523 656 l 1
 523 255 l 1
525 1146 m 1
 525 815 l 1
 695 815 l 0
 787 815 885 864 885 979 c 0
 885 1089 814 1146 699 1146 c 0
 525 1146 l 1
EndSplineSet
EndChar

StartChar: C
Encoding: 67 67 41
Width: 1094
VWidth: 1994
GlyphClass: 2
Flags: HW
HStem: -3 298<617 948> 1118 292<615 945>
VStem: 83 367<487 931>
LayerCount: 2
Fore
SplineSet
997 1074 m 1
 912 1103 838 1118 770 1118 c 0
 559 1118 450 954 450 707 c 0
 450 456 567 295 780 295 c 0
 868 295 936 316 998 340 c 1
 1042 83 l 1
 936 26 824 -3 713 -3 c 0
 372 -3 86 306 83 705 c 1
 83 1124 346 1410 702 1410 c 0
 818 1410 936 1380 1040 1325 c 1
 997 1074 l 1
EndSplineSet
EndChar

StartChar: D
Encoding: 68 68 42
Width: 1417
VWidth: 1994
GlyphClass: 2
Flags: HW
HStem: 57 296<524 834> 1055 296<524 832>
VStem: 159 365<353 1055> 983 372<525 903>
LayerCount: 2
Fore
SplineSet
694 57 m 0
 159 57 l 1
 159 1351 l 1
 694 1351 l 0
 1075 1351 1355 1117 1355 714 c 0
 1355 298 1082 57 694 57 c 0
524 353 m 1
 694 353 l 2
 884 353 983 528 983 717 c 0
 983 906 875 1055 694 1055 c 0
 524 1055 l 1
 524 353 l 1
EndSplineSet
EndChar

StartChar: E
Encoding: 69 69 43
Width: 1076
VWidth: 1994
GlyphClass: 2
Flags: HW
HStem: 57 238<544 985> 618 190<544 944> 1111 240<544 985>
VStem: 151 392<295 618 808 1111>
LayerCount: 2
Fore
SplineSet
985 57 m 1
 151 57 l 1
 151 1351 l 1
 985 1351 l 1
 985 1111 l 1
 544 1111 l 1
 544 808 l 1
 944 808 l 1
 944 618 l 1
 544 618 l 1
 544 295 l 1
 985 295 l 1
 985 57 l 1
EndSplineSet
EndChar

StartChar: F
Encoding: 70 70 44
Width: 1028
VWidth: 1994
GlyphClass: 2
Flags: HW
LayerCount: 2
Fore
SplineSet
496 57 m 1
 151 57 l 1
 151 1351 l 1
 967 1351 l 1
 967 1111 l 1
 496 1111 l 1
 496 781 l 1
 929 781 l 1
 929 589 l 1
 496 589 l 1
 496 57 l 1
EndSplineSet
EndChar

StartChar: G
Encoding: 71 71 45
Width: 1203
VWidth: 1994
GlyphClass: 2
Flags: HW
HStem: -3 296<607 840> 1121 290<603 961>
VStem: 83 366<486 935> 843 277<303 621>
LayerCount: 2
Fore
SplineSet
448 711 m 0
 448 495 550 293 744 293 c 0
 770 293 803 297 831 301 c 0
 843 303 l 1
 843 621 l 1
 1119 653 l 1
 1119 89 l 1
 973 27 833 -3 695 -3 c 0
 364 -3 83 328 83 716 c 0
 83 1091 372 1411 694 1411 c 0
 834 1411 968 1382 1092 1327 c 1
 982 1072 l 1
 876 1105 803 1121 744 1121 c 0
 549 1121 448 926 448 711 c 0
EndSplineSet
EndChar

StartChar: H
Encoding: 72 72 46
Width: 1475
VWidth: 1994
GlyphClass: 2
Flags: HW
HStem: 587 227<531 973>
VStem: 159 372<57 587 813 1351> 973 374<57 587 813 1351>
LayerCount: 2
Fore
SplineSet
531 57 m 1
 159 57 l 1
 159 1351 l 1
 531 1351 l 1
 531 813 l 1
 973 813 l 1
 973 1351 l 1
 1347 1351 l 1
 1347 57 l 1
 973 57 l 1
 973 587 l 1
 531 587 l 1
 531 57 l 1
EndSplineSet
EndChar

StartChar: I
Encoding: 73 73 47
Width: 666
VWidth: 1994
GlyphClass: 2
Flags: W
HStem: 43 21G<142 538> 1345 20G<142 538>
VStem: 142 396<43 1365>
LayerCount: 2
Fore
SplineSet
142 43 m 1
 142 1365 l 1
 538 1365 l 1
 538 43 l 1
 142 43 l 1
EndSplineSet
EndChar

StartChar: J
Encoding: 74 74 48
Width: 795
VWidth: 1991
GlyphClass: 2
Flags: HW
HStem: -63 263<96 413>
VStem: 336 333<246 1319>
LayerCount: 2
Fore
SplineSet
336 1319 m 1
 670 1319 l 1
 670 392 l 0
 670 111 529 -63 298 -63 c 0
 206 -63 105 -34 12 23 c 1
 86 220 l 1
 130 207 169 200 203 200 c 0
 295 200 336 276 336 392 c 0
 336 1319 l 1
EndSplineSet
EndChar

StartChar: K
Encoding: 75 75 49
Width: 1423
VWidth: 1994
GlyphClass: 2
Flags: HW
HStem: 595 205<545 714>
VStem: 160 385<57 595 800 1351>
LayerCount: 2
Fore
SplineSet
545 57 m 1
 160 57 l 1
 160 1351 l 1
 545 1351 l 1
 545 800 l 1
 722 800 l 1
 966 1351 l 1
 1358 1351 l 1
 1358 1299 l 1
 1051 709 l 1
 1402 109 l 1
 1402 57 l 1
 984 57 l 1
 714 595 l 1
 545 595 l 1
 545 57 l 1
EndSplineSet
EndChar

StartChar: L
Encoding: 76 76 50
Width: 964
VWidth: 1994
GlyphClass: 2
Flags: HW
HStem: 57 232<495 928>
VStem: 150 345<289 1351>
LayerCount: 2
Fore
SplineSet
928 57 m 1
 150 57 l 1
 150 1351 l 1
 495 1351 l 1
 495 289 l 1
 928 289 l 1
 928 57 l 1
EndSplineSet
EndChar

StartChar: M
Encoding: 77 77 51
Width: 1662
VWidth: 1994
GlyphClass: 2
Flags: HW
LayerCount: 2
Fore
SplineSet
506 57 m 1
 163 57 l 1
 163 1351 l 1
 517 1351 l 1
 852 659 l 1
 1179 1351 l 1
 1533 1351 l 1
 1533 57 l 1
 1190 57 l 1
 1190 868 l 1
 911 307 l 1
 787 307 l 1
 506 867 l 1
 506 57 l 1
EndSplineSet
EndChar

StartChar: N
Encoding: 78 78 52
Width: 1456
VWidth: 1994
GlyphClass: 2
Flags: HW
HStem: 43 20G<158 447 972 1328> 1346 19G<158 516 1037 1328>
VStem: 158 289<43 819> 1037 291<564 1365>
LayerCount: 2
Fore
SplineSet
158 43 m 1
 158 1365 l 1
 504 1365 l 1
 1037 564 l 1
 1037 1365 l 1
 1328 1365 l 1
 1328 43 l 1
 985 43 l 1
 447 819 l 1
 447 43 l 1
 158 43 l 1
EndSplineSet
EndChar

StartChar: O
Encoding: 79 79 53
Width: 1483
VWidth: 1994
GlyphClass: 2
Flags: W
HStem: -3 1413<524.129 1010.66>
VStem: 92 1330<425.508 963.051>
LayerCount: 2
Fore
SplineSet
1422 702 m 0
 1422 269 1147 -3 758 -3 c 0
 363 -3 92 269 92 702 c 0
 92 1121 378 1410 758 1410 c 0
 1153 1410 1422 1137 1422 702 c 0
756 1079 m 0
 555 1073 464 892 464 690 c 0
 464 491 560 311 758 311 c 0
 957 311 1050 495 1050 690 c 0
 1050 854 989 996 867 1053 c 1
 1050 1058 l 1
 1051 1058 1050 1058 1051 1058 c 1
 1058 1059 l 0
EndSplineSet
EndChar

StartChar: P
Encoding: 80 80 54
Width: 1187
VWidth: 1994
GlyphClass: 2
Flags: HW
LayerCount: 2
Fore
SplineSet
155 57 m 1
 155 1351 l 1
 592 1351 l 0
 899 1351 1161 1242 1161 932 c 0
 1161 647 887 520 609 520 c 0
 508 520 l 1
 508 57 l 1
 155 57 l 1
508 742 m 1
 520 741 l 2
 548 737 577 735 611 735 c 0
 730 735 834 791 834 932 c 0
 834 1071 723 1126 611 1126 c 0
 508 1126 l 1
 508 742 l 1
EndSplineSet
EndChar

StartChar: Q
Encoding: 81 81 55
Width: 1483
VWidth: 1988
GlyphClass: 2
Flags: W
HStem: -8 297<614.695 836.418> 1112 292<615.828 898.751>
VStem: 90 374<471.672 933.036> 1048 374<471.747 929.266>
LayerCount: 2
Fore
SplineSet
801 -3 m 1
 796 -4 l 2
 784 -7 771 -8 756 -8 c 0
 365 -8 90 267 90 700 c 0
 90 1112 382 1404 756 1404 c 0
 1151 1404 1422 1132 1422 701 c 0
 1422 429 1310 257 1167 129 c 0
 1154 117 l 1
 1422 -67 l 1
 1422 -111 l 1
 1202 -284 l 1
 801 -3 l 1
1048 700 m 0
 1048 914 956 1112 756 1112 c 0
 554 1112 464 911 464 700 c 0
 464 490 560 289 756 289 c 0
 956 289 1048 491 1048 700 c 0
EndSplineSet
EndChar

StartChar: R
Encoding: 82 82 56
Width: 1284
VWidth: 1992
GlyphClass: 2
Flags: HW
HStem: -4 290<1054 1244> 539 248<517 649> 1115 205<517 832>
VStem: 157 360<26 539 787 1115> 882 323<850 1066>
LayerCount: 2
Fore
SplineSet
946 600 m 1
 948 589 l 2
 975 429 994 286 1207 286 c 0
 1220 286 1234 287 1246 289 c 1
 1246 23 l 1
 1171 3 1124 -4 1094 -4 c 0
 879 -4 750 93 704 298 c 0
 649 539 l 1
 517 539 l 1
 517 26 l 1
 157 26 l 1
 157 1320 l 1
 700 1320 l 0
 961 1320 1205 1210 1205 952 c 0
 1205 753 1096 670 956 605 c 0
 946 600 l 1
517 787 m 1
 612 787 l 2
 723 787 882 798 882 961 c 0
 882 1095 763 1115 667 1115 c 0
 517 1115 l 1
 517 787 l 1
EndSplineSet
EndChar

StartChar: S
Encoding: 83 83 57
Width: 1071
VWidth: 1994
GlyphClass: 2
Flags: HW
HStem: -3 273<276 654> 1141 270<444 799>
VStem: 89 334<957 1118> 684 329<298 477>
LayerCount: 2
Fore
SplineSet
958 1321 m 1
 870 1078 l 1
 757 1113 642 1141 563 1141 c 0
 518 1141 423 1133 423 1041 c 0
 423 978 471 938 536 915 c 1
 686 863 l 1
 868 803 1013 674 1013 465 c 0
 1013 136 823 -3 533 -3 c 0
 379 -3 234 27 103 85 c 1
 140 182 160 261 188 338 c 1
 294 310 395 270 509 270 c 0
 572 270 684 271 684 387 c 0
 684 469 615 499 580 512 c 0
 381 587 l 1
 224 641 89 761 89 979 c 0
 89 1269 246 1411 557 1411 c 0
 693 1411 828 1380 958 1321 c 1
EndSplineSet
EndChar

StartChar: T
Encoding: 84 84 58
Width: 1040
VWidth: 1994
GlyphClass: 2
Flags: HW
HStem: 1123 228<79 354 708 983>
VStem: 354 354<57 1123>
LayerCount: 2
Fore
SplineSet
708 57 m 1
 354 57 l 1
 354 1123 l 1
 79 1123 l 1
 79 1351 l 1
 983 1351 l 1
 983 1123 l 1
 708 1123 l 1
 708 57 l 1
EndSplineSet
EndChar

StartChar: U
Encoding: 85 85 59
Width: 1483
VWidth: 1992
GlyphClass: 2
Flags: HW
HStem: -4 298<615 898>
VStem: 146 374<391 1320> 993 374<399 1320>
LayerCount: 2
Fore
SplineSet
1368 1320 m 1
 1368 558 l 2
 1368 190 1102 -4 757 -4 c 0
 423 -4 146 211 146 558 c 0
 146 1320 l 1
 521 1320 l 1
 521 558 l 0
 521 388 603 293 757 293 c 0
 911 293 993 394 993 558 c 0
 993 1320 l 1
 1368 1320 l 1
EndSplineSet
EndChar

StartChar: V
Encoding: 86 86 60
Width: 1231
VWidth: 1994
GlyphClass: 2
Flags: HW
LayerCount: 2
Fore
SplineSet
826 57 m 1
 402 57 l 1
 29 1351 l 1
 399 1351 l 1
 615 415 l 1
 830 1351 l 1
 1218 1351 l 1
 826 57 l 1
EndSplineSet
EndChar

StartChar: W
Encoding: 87 87 61
Width: 1869
VWidth: 1994
GlyphClass: 2
Flags: HW
LayerCount: 2
Fore
SplineSet
763 57 m 1
 371 57 l 1
 79 1351 l 1
 453 1351 l 1
 596 353 l 1
 750 1123 l 1
 1142 1123 l 1
 1298 353 l 1
 1438 1351 l 1
 1814 1351 l 1
 1522 57 l 1
 1128 57 l 1
 946 886 l 1
 763 57 l 1
EndSplineSet
EndChar

StartChar: X
Encoding: 88 88 62
Width: 1151
VWidth: 1994
GlyphClass: 2
Flags: HW
LayerCount: 2
Fore
SplineSet
389 57 m 1
 24 57 l 1
 371 700 l 1
 34 1351 l 1
 399 1351 l 1
 563 969 l 1
 726 1351 l 1
 1100 1351 l 1
 759 700 l 1
 1110 57 l 1
 736 57 l 1
 563 429 l 1
 389 57 l 1
EndSplineSet
EndChar

StartChar: Y
Encoding: 89 89 63
Width: 1109
VWidth: 1994
GlyphClass: 2
Flags: HW
HStem: 43 20G<385 709> 1346 19G<16 363 728 1094>
VStem: 385 324<43 405>
LayerCount: 2
Fore
SplineSet
385 43 m 1
 385 405 l 1
 16 1365 l 1
 358 1365 l 1
 547 674 l 1
 734 1365 l 1
 1094 1365 l 1
 709 405 l 1
 709 43 l 1
 385 43 l 1
EndSplineSet
EndChar

StartChar: Z
Encoding: 90 90 64
Width: 967
VWidth: 1994
GlyphClass: 2
Flags: HW
HStem: 57 227<441 897> 1123 228<109 539>
LayerCount: 2
Fore
SplineSet
897 57 m 1
 90 57 l 1
 90 305 l 1
 539 1123 l 1
 109 1123 l 1
 109 1351 l 1
 877 1351 l 1
 877 1101 l 1
 441 284 l 1
 897 284 l 1
 897 57 l 1
EndSplineSet
EndChar

StartChar: bracketleft
Encoding: 91 91 65
Width: 809
VWidth: 1994
GlyphClass: 2
Flags: HW
LayerCount: 2
Fore
SplineSet
742 57 m 1
 132 57 l 1
 132 1351 l 1
 742 1351 l 1
 742 1117 l 1
 473 1117 l 1
 473 289 l 1
 742 289 l 1
 742 57 l 1
EndSplineSet
EndChar

StartChar: backslash
Encoding: 92 92 66
Width: 583
VWidth: 1994
GlyphClass: 2
Flags: HW
LayerCount: 2
Fore
SplineSet
66 1351 m 1
 203 1351 l 1
 512 57 l 1
 379 57 l 1
 66 1351 l 1
EndSplineSet
EndChar

StartChar: bracketright
Encoding: 93 93 67
Width: 807
VWidth: 1994
GlyphClass: 2
Flags: HW
LayerCount: 2
Fore
SplineSet
693 57 m 1
 83 57 l 1
 83 289 l 1
 352 289 l 1
 352 1117 l 1
 83 1117 l 1
 83 1351 l 1
 693 1351 l 1
 693 57 l 1
EndSplineSet
EndChar

StartChar: asciicircum
Encoding: 94 94 68
Width: 1061
VWidth: 2000
GlyphClass: 2
Flags: HW
LayerCount: 2
Fore
SplineSet
394 1355 m 1
 666 1355 l 1
 973 371 l 1
 744 371 l 1
 532 1294 l 1
 324 371 l 1
 90 371 l 1
 394 1355 l 1
EndSplineSet
EndChar

StartChar: underscore
Encoding: 95 95 69
Width: 768
VWidth: 1968
GlyphClass: 2
Flags: HW
LayerCount: 2
Fore
SplineSet
690 0 m 1
 94 0 l 1
 94 110 l 1
 690 110 l 1
 690 0 l 1
EndSplineSet
EndChar

StartChar: grave
Encoding: 96 96 70
Width: 728
VWidth: 2024
GlyphClass: 2
Flags: HW
HStem: 1199 536
VStem: 43 639
LayerCount: 2
Fore
SplineSet
587 1199 m 1
 43 1440 l 1
 211 1735 l 1
 682 1366 l 1
 587 1199 l 1
EndSplineSet
EndChar

StartChar: a
Encoding: 97 97 71
Width: 1277
VWidth: 1986
GlyphClass: 2
Flags: W
HStem: -10 269<384 662.661> 765 269<387.788 652.815>
VStem: 75 344<358.244 665.417> 833 344<20 303 353.803 1007>
LayerCount: 2
Fore
SplineSet
628 765 m 0
 509 765 419 655 419 512 c 0
 419 368 510 259 628 259 c 0
 751 259 833 375 833 521 c 1
 828 655 744 765 628 765 c 0
508 -10 m 0
 260 -10 75 229 75 519 c 0
 75 807 266 1034 510 1034 c 0
 651 1034 738 930 780 809 c 0
 833 660 l 1
 833 1032 l 1
 1177 1007 l 1
 1177 20 l 1
 833 -8 l 1
 833 303 l 1
 781 186 l 0
 732 74 654 -10 508 -10 c 0
EndSplineSet
EndChar

StartChar: b
Encoding: 98 98 72
Width: 1282
VWidth: 1993
GlyphClass: 2
Flags: HW
LayerCount: 2
Fore
SplineSet
797 1041 m 0
 1048 1041 1232 811 1232 519 c 0
 1232 231 1042 -3 799 -3 c 0
 660 -3 577 85 529 202 c 0
 478 327 l 1
 478 29 l 1
 130 29 l 1
 130 1328 l 1
 478 1380 l 1
 478 724 l 1
 529 845 l 0
 586 979 673 1041 797 1041 c 0
683 266 m 0
 801 266 890 378 890 519 c 0
 890 663 802 773 683 773 c 0
 563 773 478 662 478 519 c 0
 478 377 564 266 683 266 c 0
EndSplineSet
EndChar

StartChar: c
Encoding: 99 99 73
Width: 829
VWidth: 1986
GlyphClass: 2
Flags: HW
HStem: -10 263<475 729> 769 265<474 713>
VStem: 67 328<342 681>
LayerCount: 2
Fore
SplineSet
589 253 m 0
 640 253 696 262 750 277 c 1
 781 56 l 1
 704 18 625 -10 522 -10 c 0
 271 -10 67 195 67 512 c 0
 67 827 278 1034 522 1034 c 0
 636 1034 707 999 784 954 c 1
 754 745 l 1
 692 762 637 769 585 769 c 0
 465 769 395 663 395 512 c 0
 395 358 467 253 589 253 c 0
EndSplineSet
EndChar

StartChar: d
Encoding: 100 100 74
Width: 1280
VWidth: 1993
GlyphClass: 2
Flags: HW
HStem: -3 269<392 659> 773 269<387 660> 1361 19G<1052 1178>
VStem: 76 344<365 676> 832 346<29 326 363 675 725 1328>
LayerCount: 2
Fore
SplineSet
832 326 m 1
 780 201 l 2
 732 84 652 -3 507 -3 c 0
 277 -3 76 245 76 519 c 0
 76 808 265 1041 509 1041 c 0
 635 1041 722 979 780 845 c 0
 832 725 l 1
 832 1328 l 1
 1178 1380 l 1
 1178 29 l 1
 832 29 l 1
 832 326 l 1
627 773 m 0
 508 773 420 662 420 519 c 0
 420 376 509 266 627 266 c 0
 745 266 832 379 832 519 c 0
 832 659 744 773 627 773 c 0
EndSplineSet
EndChar

StartChar: e
Encoding: 101 101 75
Width: 997
VWidth: 1986
GlyphClass: 2
Flags: W
HStem: -10 224<485.432 837.243> 838 196<450.06 653.747>
VStem: 70 317<583 738.3>
LayerCount: 2
Fore
SplineSet
395 419 m 1
 399 402 l 2
 431 283 499 214 619 214 c 0
 693 214 781 235 872 272 c 1
 910 59 l 1
 799 12 683 -10 563 -10 c 0
 291 -10 70 193 70 512 c 0
 70 827 287 1034 551 1034 c 0
 802 1034 954 831 954 530 c 0
 954 521 954 510 953 503 c 1
 395 419 l 1
715 665 m 1
 712 680 l 2
 689 775 641 838 551 838 c 0
 428 838 389 719 387 602 c 0
 387 583 l 1
 715 665 l 1
EndSplineSet
EndChar

StartChar: f
Encoding: 102 102 76
Width: 755
VWidth: 1998
GlyphClass: 2
Flags: HW
HStem: 831 186<66 189 494 736> 1304 238<361 696>
VStem: 189 305<90 831> 189 257<1018 1274>
LayerCount: 2
Fore
SplineSet
579 1304 m 0xd0
 498 1304 446 1255 446 1164 c 0xd0
 446 1121 461 1071 479 1026 c 0
 482 1018 l 1
 736 1018 l 1
 736 831 l 1
 494 831 l 1
 494 90 l 1
 189 90 l 1
 189 831 l 1xe0
 66 831 l 1
 66 1018 l 1
 189 1018 l 1
 189 1046 l 0
 189 1349 247 1542 474 1542 c 0
 553 1542 651 1520 753 1477 c 1
 742 1270 l 1
 678 1293 627 1304 579 1304 c 0xd0
EndSplineSet
EndChar

StartChar: g
Encoding: 103 103 77
Width: 1275
VWidth: 1977
GlyphClass: 2
Flags: HW
HStem: -439 244<484 726> 21 286<378 688> 757 269<387 649>
VStem: 73 343<394 671> 830 346<396 996>
LayerCount: 2
Fore
SplineSet
623 307 m 0
 744 307 830 411 830 540 c 1
 825 658 737 757 623 757 c 0
 504 757 416 659 416 532 c 0
 416 403 506 307 623 307 c 0
874 289 m 1
 807 180 l 2
 743 75 645 21 505 21 c 0
 258 21 73 243 73 523 c 0
 73 792 273 1025 502 1025 c 0
 647 1025 745 928 777 803 c 0
 830 595 l 1
 830 1023 l 1
 1176 996 l 1
 1176 260 l 0
 1176 -177 1003 -439 623 -439 c 0
 568 -439 513 -433 462 -425 c 1
 485 -187 l 1
 532 -193 561 -196 584 -196 c 0
 789 -196 831 -22 856 158 c 0
 874 289 l 1
EndSplineSet
EndChar

StartChar: h
Encoding: 104 104 78
Width: 1267
VWidth: 1995
GlyphClass: 2
Flags: HW
HStem: 774 269<657 914> 1363 19G<348 474>
VStem: 129 345<87 1329> 832 343<87 701>
LayerCount: 2
Fore
SplineSet
832 87 m 1
 832 550 l 2
 832 647 787 774 679 774 c 0
 556 774 474 665 474 536 c 0
 474 87 l 1
 129 87 l 1
 129 1329 l 1
 474 1382 l 1
 474 677 l 1
 526 813 l 0
 575 942 655 1043 796 1043 c 0
 1032 1043 1175 823 1175 557 c 0
 1175 87 l 1
 832 87 l 1
EndSplineSet
EndChar

StartChar: i
Encoding: 105 105 79
Width: 675
VWidth: 1996
GlyphClass: 2
Flags: W
HStem: -13 258.443<323.5 635.774> 925.241 20G<110 469> 1187 340<161.911 425.478>
VStem: 103 385<1246.5 1467.02> 110 359<262.585 945.241>
LayerCount: 2
Fore
SplineSet
296 1527 m 0xf0
 403 1527 488 1455 488 1358 c 0
 488 1257 404 1187 296 1187 c 0
 185 1187 103 1255 103 1358 c 0
 103 1458 187 1527 296 1527 c 0xf0
110 945.241 m 1xe8
 469 945.241 l 1
 469 371 l 2
 469 296.629 492.36 245.443 566.503 245.443 c 0
 587.185 245.443 611.819 249.426 641 258 c 1
 658 42 l 1
 587 5 514 -13 431 -13 c 0
 216 -13 110 128 110 352 c 2
 110 945.241 l 1xe8
EndSplineSet
EndChar

StartChar: j
Encoding: 106 106 80
Width: 508
VWidth: 1988
GlyphClass: 2
Flags: HW
HStem: -402 261<-165 147> 1192 340<107 344>
VStem: 57 350<1254 1469> 74 326<-94 950>
LayerCount: 2
Fore
SplineSet
74 950 m 1xd0
 399 950 l 1
 399 51 l 0
 399 -227 261 -402 33 -402 c 0
 -58 -402 -159 -372 -251 -315 c 1
 -179 -119 l 1
 -129 -134 -91 -141 -60 -141 c 0
 32 -141 74 -65 74 51 c 0
 74 950 l 1xd0
213 1532 m 0
 321 1532 407 1461 407 1363 c 0
 407 1260 323 1192 213 1192 c 0
 122 1192 57 1260 57 1363 c 0xe0
 57 1463 124 1532 213 1532 c 0
EndSplineSet
EndChar

StartChar: k
Encoding: 107 107 81
Width: 1171
VWidth: 1993
GlyphClass: 2
Flags: HW
HStem: -1 273<950 1091> 1361 19G<349 475>
VStem: 128 346<29 296 678 1328>
LayerCount: 2
Fore
SplineSet
849 602 m 1
 850 593 l 2
 870 450 892 271 1071 271 c 0
 1085 271 1103 273 1122 276 c 1
 1091 2 l 1
 1059 -1 1034 -1 1008 -1 c 0
 750 -1 688 145 632 386 c 0
 621 431 l 1
 475 296 l 1
 475 29 l 1
 128 29 l 1
 128 1328 l 1
 475 1380 l 1
 475 678 l 1
 958 1111 l 1
 1150 832 l 1
 849 602 l 1
EndSplineSet
EndChar

StartChar: l
Encoding: 108 108 82
Width: 701
VWidth: 1993
GlyphClass: 2
Flags: HW
HStem: -3 261<324 667> 1361 19G<339 468>
VStem: 111 357<296 1327>
LayerCount: 2
Fore
SplineSet
111 1327 m 1
 468 1380 l 1
 468 397 l 0
 468 300 540 258 622 258 c 0
 643 258 666 262 686 268 c 1
 698 53 l 1
 616 15 529 -3 432 -3 c 0
 216 -3 111 142 111 378 c 0
 111 1327 l 1
EndSplineSet
EndChar

StartChar: m
Encoding: 109 109 83
Width: 1940
VWidth: 1988
GlyphClass: 2
Flags: HW
LayerCount: 2
Fore
SplineSet
542 809 m 0
 609 964 706 1036 838 1036 c 0
 1019 1036 1099 907 1152 758 c 0
 1166 719 l 1
 1191 797 l 0
 1237 939 1335 1036 1510 1036 c 0
 1735 1036 1848 798 1848 543 c 0
 1848 80 l 1
 1497 80 l 1
 1497 543 l 0
 1497 644 1458 763 1341 763 c 0
 1222 763 1162 651 1162 543 c 0
 1162 80 l 1
 825 80 l 1
 825 543 l 0
 825 646 783 763 665 763 c 0
 548 763 492 659 489 551 c 1
 489 80 l 1
 138 80 l 1
 138 977 l 1
 489 1031 l 1
 489 685 l 1
 542 809 l 0
EndSplineSet
EndChar

StartChar: n
Encoding: 110 110 84
Width: 1261
VWidth: 1988
GlyphClass: 2
Flags: W
HStem: 705.998 269<636.769 937> 925 20G<124.773 469>
VStem: 124 345<0 624.076 733.998 924.955> 825 343<0 649.83>
LayerCount: 2
Back
SplineSet
832.367 60 m 5
 832.367 542 l 6
 832.367 642.895 785.698 776 673.316 776 c 4
 554.38 776 464.407 676.903 461.454 550.375 c 5
 461.454 60 l 5
 102 60 l 5
 102 994.269 l 5
 461.454 1051.02 l 5
 461.454 695.143 l 5
 532.585 860.982 602.128 1056 813.533 1056 c 4
 1051.48 1056 1190 813.507 1190 542 c 4
 1190 60 l 5
 832.367 60 l 5
EndSplineSet
Fore
SplineSet
825 0 m 1xb0
 825 509.998 l 2
 825 606.998 780 705.998 672 705.998 c 0xb0
 558 705.998 472 610.998 469 489.998 c 1
 469 0 l 1
 124 0 l 1
 124 924.955 l 1
 469 945 l 1x70
 469 733.998 l 1
 530 863.998 620 974.998 823 974.998 c 0
 1051 974.998 1168 770.998 1168 509.998 c 0
 1168 0 l 1
 825 0 l 1xb0
EndSplineSet
EndChar

StartChar: o
Encoding: 111 111 85
Width: 1140
VWidth: 1986
GlyphClass: 2
Flags: W
HStem: -30 232<466.791 676.286> 743 232<466.791 676.286>
VStem: 61 326<289.205 650.911> 759 320<297.354 649.163>
LayerCount: 2
Fore
SplineSet
387 475 m 0
 387 622 454 743 572 743 c 0
 686 743 759 616 759 475 c 0
 759 328 686 202 572 202 c 0
 454 202 387 323 387 475 c 0
1079 475 m 0
 1079 811 855 975 572 975 c 0
 287 975 63 814 61 475 c 1
 63 130 287 -30 572 -30 c 4
 855 -30 1079 134 1079 475 c 0
EndSplineSet
EndChar

StartChar: p
Encoding: 112 112 86
Width: 1277
VWidth: 1980
GlyphClass: 2
Flags: HW
LayerCount: 2
Fore
SplineSet
522 832 m 0
 581 966 669 1028 792 1028 c 0
 1024 1028 1227 783 1227 506 c 0
 1227 231 1026 -16 794 -16 c 0
 671 -16 583 46 522 180 c 0
 471 294 l 1
 471 -246 l 1
 125 -314 l 1
 125 966 l 1
 471 1023 l 1
 471 714 l 1
 522 832 l 0
676 252 m 0
 796 252 885 362 885 506 c 0
 885 652 795 759 676 759 c 0
 558 759 471 643 471 506 c 0
 471 365 558 252 676 252 c 0
EndSplineSet
EndChar

StartChar: q
Encoding: 113 113 87
Width: 1277
VWidth: 1980
GlyphClass: 2
Flags: HW
LayerCount: 2
Fore
SplineSet
509 -16 m 0
 257 -16 76 237 76 506 c 0
 76 799 262 1028 511 1028 c 0
 634 1028 723 965 783 831 c 0
 834 716 l 1
 834 1023 l 1
 1180 966 l 1
 1180 -246 l 1
 834 -314 l 1
 834 293 l 1
 783 180 l 0
 722 46 632 -16 509 -16 c 0
629 759 m 0
 510 759 420 649 420 506 c 0
 420 363 511 252 629 252 c 0
 751 252 834 372 834 515 c 0
 834 648 743 759 629 759 c 0
EndSplineSet
EndChar

StartChar: r
Encoding: 114 114 88
Width: 780
VWidth: 1988
GlyphClass: 2
Flags: HW
HStem: 1016 19G<327 443 659 727>
VStem: 116 327<80 977>
LayerCount: 2
Fore
SplineSet
489 811 m 0
 526 930 594 1024 723 1035 c 1
 773 757 l 1
 609 754 443 732 443 562 c 0
 443 80 l 1
 116 80 l 1
 116 977 l 1
 443 1031 l 1
 443 663 l 1
 489 811 l 0
EndSplineSet
EndChar

StartChar: s
Encoding: 115 115 89
Width: 810
VWidth: 1986
GlyphClass: 2
Flags: HW
HStem: -10 196<162 460> 833 202<362 666>
VStem: 70 281<675 821>
LayerCount: 2
Fore
SplineSet
471 268 m 1
 471 268 l 2
 461 357 385 375 342 386 c 0
 176 422 71 491 70 703 c 1
 80 933 230 1034 430 1034 c 0
 519 1034 616 1014 702 977 c 1
 670 796 l 1
 584 820 517 833 470 833 c 0
 414 833 352 823 352 759 c 0
 352 682 418 658 451 653 c 1
 620 622 762 542 762 328 c 0
 762 117 626 -10 448 -10 c 0
 326 -10 201 12 97 55 c 1
 131 228 l 1
 208 207 287 186 368 186 c 0
 419 186 471 202 471 265 c 0
 471 268 l 1
EndSplineSet
EndChar

StartChar: t
Encoding: 116 116 90
Width: 754
VWidth: 1993
GlyphClass: 2
Flags: W
HStem: -63 261<424 737.785> 751 192<113 238 535 762>
VStem: 235 300<236.168 748>
LayerCount: 2
Fore
SplineSet
762 751 m 1
 535 751 l 1
 535 341 l 0
 535 242 607 198 689 198 c 0
 710 198 732 202 752 208 c 1
 764 -7 l 1
 682 -45 596 -63 507 -63 c 0
 341 -63 235 83 235 321 c 0
 238 748 l 1
 113 748 l 1
 113 945 l 1
 258 945 l 1
 418 1325 l 1
 535 1325 l 1
 535 943 l 1
 762 943 l 1
 762 751 l 1
EndSplineSet
EndChar

StartChar: u
Encoding: 117 117 91
Width: 1142
VWidth: 1984
GlyphClass: 2
Flags: W
HStem: -30.0908 265<489.374 683.09> 925.24 20G<113.999 447.999 722.999 1050>
VStem: 114 334<275.32 945.24> 723 327<275.654 945.24>
LayerCount: 2
Fore
SplineSet
722.999 945.24 m 1
 1050 945.24 l 1
 1050 393.909 l 0
 1050 122.909 841 -30.0908 587 -30.0908 c 0
 332 -30.0908 114 121.909 114 393.909 c 0
 113.999 945.24 l 1
 447.999 945.24 l 1
 448 380.909 l 0
 448 290.909 513 234.909 589 234.909 c 0
 664 234.909 723 296.909 723 380.909 c 0
 722.999 945.24 l 1
EndSplineSet
EndChar

StartChar: v
Encoding: 118 118 92
Width: 1026
VWidth: 1987
GlyphClass: 2
Flags: HW
LayerCount: 2
Fore
SplineSet
713 64 m 1
 321 64 l 1
 22 992 l 1
 400 992 l 1
 562 292 l 1
 710 992 l 1
 1001 992 l 1
 713 64 l 1
EndSplineSet
EndChar

StartChar: w
Encoding: 119 119 93
Width: 1554
VWidth: 1987
GlyphClass: 2
Flags: HW
HStem: 972 19G<71 408 681 963 1237 1501>
LayerCount: 2
Fore
SplineSet
660 64 m 1
 275 64 l 1
 71 992 l 1
 405 992 l 1
 531 228 l 1
 685 992 l 1
 959 992 l 1
 1110 210 l 1
 1240 992 l 1
 1501 992 l 1
 1309 64 l 1
 903 64 l 1
 780 704 l 1
 660 64 l 1
EndSplineSet
EndChar

StartChar: x
Encoding: 120 120 94
Width: 994
VWidth: 1987
GlyphClass: 2
Flags: W
HStem: 972 20G<43 381.561 598.292 927>
LayerCount: 2
Fore
SplineSet
356 64 m 1
 23 64 l 1
 301 546 l 1
 43 992 l 1
 373 992 l 1
 489 721 l 1
 607 992 l 1
 927 992 l 1
 674 546 l 1
 947 64 l 1
 623 64 l 1
 489 351 l 1
 356 64 l 1
EndSplineSet
EndChar

StartChar: y
Encoding: 121 121 95
Width: 1223
VWidth: 1975
GlyphClass: 2
Flags: HW
HStem: -451 273<533 708> 9 239<512 655>
VStem: 119 343<307 937> 779 344<308 937>
LayerCount: 2
Fore
SplineSet
629 -451 m 0
 600 -451 557 -446 504 -437 c 1
 535 -173 l 1
 557 -177 577 -178 600 -178 c 0
 764 -178 785 10 796 142 c 0
 807 279 l 1
 746 158 l 0
 691 50 607 9 515 9 c 0
 226 10 119 173 119 398 c 0
 119 937 l 1
 461 937 l 1
 461 417 l 0
 461 328 526 248 610 248 c 0
 714 248 779 334 779 444 c 0
 779 937 l 1
 1123 937 l 1
 1123 231 l 0
 1123 -171 980 -451 629 -451 c 0
EndSplineSet
EndChar

StartChar: z
Encoding: 122 122 96
Width: 865
VWidth: 1987
GlyphClass: 2
Flags: HW
HStem: 64 194<485 804> 798 194<92 425>
LayerCount: 2
Fore
SplineSet
804 64 m 1
 78 64 l 1
 78 238 l 1
 425 798 l 1
 92 798 l 1
 92 992 l 1
 794 992 l 1
 794 815 l 1
 485 258 l 1
 804 258 l 1
 804 64 l 1
EndSplineSet
EndChar

StartChar: braceleft
Encoding: 123 123 97
Width: 653
VWidth: 1993
GlyphClass: 2
Flags: HW
LayerCount: 2
Fore
SplineSet
467 496 m 0
 467 344 480 170 588 109 c 1
 588 -12 l 1
 313 20 145 196 145 496 c 0
 145 579 90 625 24 640 c 1
 24 744 l 1
 92 759 145 804 145 886 c 0
 145 1191 316 1361 588 1395 c 1
 588 1275 l 1
 475 1214 467 1036 467 886 c 0
 467 799 408 757 333 718 c 0
 284 692 l 1
 333 666 l 0
 410 626 467 586 467 496 c 0
EndSplineSet
EndChar

StartChar: bar
Encoding: 124 124 98
Width: 366
VWidth: 1994
GlyphClass: 2
Flags: HW
LayerCount: 2
Fore
SplineSet
252 57 m 1
 122 57 l 1
 122 1351 l 1
 252 1351 l 1
 252 57 l 1
EndSplineSet
EndChar

StartChar: braceright
Encoding: 125 125 99
Width: 655
VWidth: 1993
GlyphClass: 2
Flags: HW
LayerCount: 2
Fore
SplineSet
80 1275 m 1
 80 1395 l 1
 356 1361 523 1189 523 886 c 0
 523 803 578 758 644 744 c 1
 644 640 l 1
 576 625 523 578 523 496 c 0
 523 190 353 23 80 -11 c 1
 80 109 l 1
 192 170 201 347 201 496 c 0
 201 586 258 626 335 666 c 0
 384 692 l 1
 335 718 l 0
 260 757 201 799 201 886 c 0
 201 1040 188 1214 80 1275 c 1
EndSplineSet
EndChar

StartChar: asciitilde
Encoding: 126 126 100
Width: 1046
VWidth: 1999
GlyphClass: 2
Flags: HW
HStem: 636 275<554 799> 743 275<271 491> 971 19G<814 871>
LayerCount: 2
Fore
SplineSet
715 911 m 0x80
 773 911 805 951 824 990 c 1
 1001 917 l 1
 946 762 869 636 722 636 c 0xa0
 644 636 588 657 530 683 c 1
 445 724 l 1
 416 737 385 743 352 743 c 0
 288 743 258 687 242 650 c 1
 62 723 l 1
 108 846 174 950 275 998 c 1
 303 1012 327 1018 353 1018 c 0x40
 494 1018 562 911 715 911 c 0x80
EndSplineSet
EndChar

StartChar: cent
Encoding: 162 162 103
Width: 869
VWidth: 1986
GlyphClass: 2
Flags: HW
LayerCount: 2
Fore
SplineSet
645 285 m 2
 681 289 715 295 748 305 c 1
 780 59 l 1
 735 39 690 22 639 5 c 0
 630 2 l 1
 630 -158 l 1
 560 -158 l 1
 560 -11 l 1
 520 -11 l 0
 270 -11 67 196 67 512 c 0
 67 826 274 1034 520 1034 c 0
 560 1034 l 1
 560 1162 l 1
 630 1162 l 1
 630 1019 l 1
 639 1016 l 0
 692 998 743 974 784 950 c 1
 752 715 l 1
 716 724 683 731 646 737 c 0
 630 739 l 1
 630 284 l 1
 645 285 l 2
543 738 m 2
 456 712 395 637 395 512 c 0
 395 386 454 310 543 286 c 0
 560 281 l 1
 560 743 l 1
 543 738 l 2
EndSplineSet
EndChar

StartChar: sterling
Encoding: 163 163 104
Width: 934
VWidth: 1994
GlyphClass: 2
Flags: HW
LayerCount: 2
Fore
SplineSet
90 758 m 1
 215 758 l 1
 215 887 l 0
 215 1210 305 1382 568 1382 c 0
 653 1382 757 1361 864 1318 c 1
 839 1110 l 1
 775 1133 722 1144 673 1144 c 0
 593 1144 539 1095 539 1004 c 0
 539 758 l 1
 768 758 l 1
 768 649 l 1
 539 649 l 1
 539 288 l 1
 852 288 l 1
 852 58 l 1
 90 58 l 1
 90 127 l 1
 177 146 215 227 215 317 c 0
 215 649 l 1
 90 649 l 1
 90 758 l 1
EndSplineSet
EndChar

StartChar: currency
Encoding: 164 164 105
Width: 1004
VWidth: 1991
GlyphClass: 2
Flags: HW
LayerCount: 2
Fore
SplineSet
229 387 m 1
 220 397 l 2
 159 467 124 545 124 644 c 0
 124 752 163 825 216 887 c 0
 225 897 l 1
 91 1031 l 1
 139 1077 l 1
 277 939 l 1
 287 945 l 0
 353 986 418 1011 496 1011 c 0
 573 1011 641 984 710 941 c 0
 719 935 l 1
 862 1077 l 1
 909 1031 l 1
 771 893 l 1
 780 883 l 0
 838 817 872 742 872 644 c 0
 872 547 837 469 776 401 c 0
 767 391 l 1
 909 249 l 1
 862 202 l 1
 713 350 l 1
 703 345 l 0
 638 306 574 282 495 282 c 1
 493 282 491 282 490 282 c 0
 415 282 353 306 293 342 c 0
 284 348 l 1
 138 202 l 1
 91 249 l 1
 229 387 l 1
663 644 m 0
 663 756 598 839 498 839 c 0
 397 839 331 758 331 644 c 0
 331 531 397 449 497 449 c 0
 597 449 663 531 663 644 c 0
EndSplineSet
EndChar

StartChar: yen
Encoding: 165 165 106
Width: 1030
VWidth: 1993
GlyphClass: 2
Flags: HW
LayerCount: 2
Fore
SplineSet
435 225 m 1
 157 225 l 1
 157 285 l 1
 435 285 l 1
 435 429 l 1
 157 429 l 1
 157 494 l 1
 404 494 l 1
 66 1320 l 1
 260 1320 l 1
 511 547 l 1
 758 1320 l 1
 951 1320 l 1
 615 494 l 1
 877 494 l 1
 877 429 l 1
 583 429 l 1
 583 285 l 1
 877 285 l 1
 877 225 l 1
 583 225 l 1
 583 56 l 1
 435 56 l 1
 435 225 l 1
EndSplineSet
EndChar

StartChar: brokenbar
Encoding: 166 166 107
Width: 370
VWidth: 1994
GlyphClass: 2
Flags: HW
LayerCount: 2
Fore
SplineSet
254 57 m 1
 124 57 l 1
 124 529 l 1
 254 529 l 1
 254 57 l 1
254 879 m 1
 124 879 l 1
 124 1351 l 1
 254 1351 l 1
 254 879 l 1
EndSplineSet
EndChar

StartChar: section
Encoding: 167 167 108
Width: 951
VWidth: 1994
GlyphClass: 2
Flags: HW
LayerCount: 2
Fore
SplineSet
416 1126 m 0
 416 1039 586 1007 606 998 c 0
 725 953 875 897 875 762 c 0
 875 657 830 588 766 548 c 0
 727 524 l 1
 765 499 l 0
 837 452 871 388 871 299 c 0
 871 96 676 26 479 26 c 0
 370 26 250 48 130 89 c 1
 162 271 l 1
 253 244 350 222 445 222 c 0
 495 222 547 237 547 295 c 0
 547 376 425 394 404 403 c 1
 338 431 l 1
 224 473 101 536 101 671 c 0
 101 763 136 831 208 884 c 0
 243 909 l 1
 207 932 l 0
 136 977 101 1042 101 1133 c 1
 111 1321 292 1382 487 1382 c 0
 604 1382 718 1361 812 1321 c 1
 780 1156 l 1
 697 1180 606 1194 520 1194 c 0
 472 1194 416 1183 416 1126 c 0
442 829 m 0
 387 824 345 783 345 712 c 0
 345 625 471 593 505 582 c 0
 506 581 l 1
 510 581 l 0
 567 581 618 620 618 694 c 0
 618 786 494 812 447 828 c 0
 444 829 l 1
 442 829 l 0
EndSplineSet
EndChar

StartChar: dieresis
Encoding: 168 168 109
Width: 1103
VWidth: 2019
GlyphClass: 2
Flags: HW
HStem: 1159 340<168 410 716 961>
VStem: 103 366<1217 1435> 657 366<1220 1436>
LayerCount: 2
Fore
SplineSet
833 1499 m 0
 940 1499 1023 1426 1023 1328 c 0
 1023 1228 940 1159 833 1159 c 0
 731 1159 657 1226 657 1328 c 0
 657 1428 735 1499 833 1499 c 0
295 1499 m 0
 392 1499 469 1427 469 1328 c 0
 469 1227 394 1159 295 1159 c 0
 186 1159 103 1227 103 1328 c 0
 103 1427 189 1499 295 1499 c 0
EndSplineSet
EndChar

StartChar: copyright
Encoding: 169 169 110
Width: 1279
VWidth: 1990
GlyphClass: 2
Flags: HW
LayerCount: 2
Fore
SplineSet
169 612 m 0
 169 369 307 200 466 124 c 0
 524 96 586 82 651 82 c 0
 871 82 1022 237 1093 407 c 0
 1120 471 1133 540 1133 612 c 0
 1133 859 988 1029 826 1103 c 0
 770 1129 711 1142 651 1142 c 0
 374 1142 169 909 169 612 c 0
94 619 m 0
 94 959 346 1198 657 1198 c 0
 945 1198 1212 930 1212 612 c 0
 1212 291 947 22 651 22 c 0
 355 22 94 294 94 619 c 0
842 900 m 1
 835 848 l 1
 784 870 737 881 687 881 c 0
 534 881 442 773 442 610 c 0
 442 447 532 341 685 341 c 0
 729 341 778 352 831 371 c 1
 840 312 l 1
 787 286 733 274 673 274 c 1
 477 276 355 398 353 610 c 1
 353 812 483 946 667 946 c 0
 733 946 791 930 842 900 c 1
EndSplineSet
EndChar

StartChar: guillemotleft
Encoding: 171 171 112
Width: 968
VWidth: 1990
GlyphClass: 2
Flags: HW
LayerCount: 2
Fore
SplineSet
542 788 m 1
 878 1062 l 1
 878 756 l 1
 662 626 l 1
 878 491 l 1
 878 183 l 1
 542 464 l 1
 542 788 l 1
70 788 m 1
 406 1062 l 1
 406 755 l 1
 212 626 l 1
 406 491 l 1
 406 183 l 1
 70 464 l 1
 70 788 l 1
EndSplineSet
EndChar

StartChar: logicalnot
Encoding: 172 172 113
Width: 953
VWidth: 1986
GlyphClass: 2
Flags: HW
LayerCount: 2
Fore
SplineSet
96 558 m 1
 96 810 l 1
 846 810 l 1
 846 216 l 1
 693 216 l 1
 693 558 l 1
 96 558 l 1
EndSplineSet
EndChar

StartChar: registered
Encoding: 174 174 114
Width: 1279
VWidth: 1990
GlyphClass: 2
Flags: HW
LayerCount: 2
Fore
SplineSet
94 619 m 0
 94 959 346 1198 657 1198 c 0
 945 1198 1212 930 1212 612 c 0
 1212 291 947 22 651 22 c 0
 355 22 94 294 94 619 c 0
169 612 m 0
 169 369 307 200 466 124 c 0
 524 96 586 82 651 82 c 0
 871 82 1022 237 1093 407 c 0
 1120 471 1133 540 1133 612 c 0
 1133 859 988 1029 826 1103 c 0
 770 1129 711 1142 651 1142 c 0
 374 1142 169 909 169 612 c 0
679 658 m 1
 679 658 l 2
 755 663 825 679 825 789 c 0
 825 904 733 915 653 915 c 2
 511 915 l 1
 511 658 l 1
 679 658 l 1
662 950 m 2
 821 950 882 895 882 789 c 0
 882 684 837 643 734 629 c 2
 720 627 l 1
 732 561 l 1
 752 462 774 343 903 335 c 1
 895 300 l 1
 780 308 740 358 714 466 c 2
 676 625 l 1
 511 625 l 1
 511 314 l 1
 463 314 l 1
 463 950 l 1
 662 950 l 2
EndSplineSet
EndChar

StartChar: degree
Encoding: 176 176 116
Width: 1134
VWidth: 2001
GlyphClass: 2
Flags: HW
LayerCount: 2
Fore
SplineSet
581 1183 m 0
 419 1183 321 1052 321 878 c 0
 321 704 420 572 581 572 c 0
 743 572 839 704 839 878 c 0
 839 1052 741 1183 581 1183 c 0
1068 884 m 0
 1068 575 862 382 579 382 c 0
 300 382 89 571 89 876 c 0
 89 1184 298 1370 581 1370 c 0
 599 1370 l 0
 873 1370 1068 1182 1068 884 c 0
EndSplineSet
EndChar

StartChar: plusminus
Encoding: 177 177 117
Width: 999
VWidth: 1990
GlyphClass: 2
Flags: HW
LayerCount: 2
Fore
SplineSet
536 232 m 1
 487 232 l 1
 487 671 l 1
 90 671 l 1
 90 725 l 1
 487 725 l 1
 487 1159 l 1
 536 1159 l 1
 536 725 l 1
 930 725 l 1
 930 671 l 1
 536 671 l 1
 536 232 l 1
930 53 m 1
 90 53 l 1
 90 105 l 1
 930 105 l 1
 930 53 l 1
EndSplineSet
EndChar

StartChar: twosuperior
Encoding: 178 178 118
Width: 593
VWidth: 2008
GlyphClass: 2
Flags: HW
HStem: 730 106<183 492> 1267 129<107 329>
VStem: 341 173<1081 1252>
LayerCount: 2
Fore
SplineSet
79 1347 m 1
 161 1380 238 1396 310 1396 c 0
 440 1396 513 1318 513 1187 c 0
 513 1050 395 957 276 889 c 0
 183 835 l 1
 492 835 l 1
 492 730 l 1
 85 730 l 1
 85 844 l 1
 169 923 228 986 271 1042 c 0
 314 1098 341 1144 341 1185 c 0
 341 1243 291 1267 233 1267 c 0
 201 1267 162 1256 117 1236 c 1
 79 1347 l 1
EndSplineSet
EndChar

StartChar: threesuperior
Encoding: 179 179 119
Width: 572
VWidth: 2008
GlyphClass: 2
Flags: HW
HStem: 700 111<96 343> 1021 76<160 304> 1276 119<96 340>
VStem: 349 129<1137 1267> 354 156<826 977>
LayerCount: 2
Fore
SplineSet
101 1251 m 1xf0
 77 1350 l 1
 152 1381 219 1396 285 1396 c 0
 392 1396 477 1340 477 1250 c 0xf0
 477 1189 450 1140 388 1099 c 0
 344 1070 l 1
 393 1049 l 0
 474 1013 510 959 510 879 c 0
 510 757 413 700 274 700 c 0
 223 700 155 713 77 737 c 1
 101 838 l 1
 158 821 205 812 245 812 c 0
 284 812 354 824 354 891 c 0xe8
 354 980 270 1016 160 1021 c 1
 160 1096 l 1
 229 1097 349 1104 349 1204 c 0
 349 1258 299 1276 262 1276 c 0
 217 1276 162 1267 101 1251 c 1xf0
EndSplineSet
EndChar

StartChar: acute
Encoding: 180 180 120
Width: 683
VWidth: 2024
GlyphClass: 2
Flags: HW
HStem: 1199 536
VStem: 17 639
LayerCount: 2
Fore
SplineSet
656 1440 m 1
 113 1199 l 1
 17 1366 l 1
 489 1735 l 1
 656 1440 l 1
EndSplineSet
EndChar

StartChar: paragraph
Encoding: 182 182 121
Width: 995
VWidth: 1994
GlyphClass: 2
Flags: HW
LayerCount: 2
Fore
SplineSet
492 756 m 1
 397 756 l 2
 214 756 63 864 63 1053 c 0
 63 1258 264 1351 467 1351 c 0
 851 1351 l 1
 851 57 l 1
 751 57 l 1
 751 1261 l 1
 577 1261 l 1
 577 57 l 1
 492 57 l 1
 492 756 l 1
EndSplineSet
EndChar

StartChar: periodcentered
Encoding: 183 183 122
Width: 558
VWidth: 1998
GlyphClass: 2
Flags: HW
HStem: 651 340<159 412>
VStem: 94 384<713 927>
LayerCount: 2
Fore
SplineSet
286 991 m 0
 392 991 478 918 478 820 c 0
 478 720 394 651 286 651 c 0
 177 651 94 719 94 820 c 0
 94 919 180 991 286 991 c 0
EndSplineSet
EndChar

StartChar: cedilla
Encoding: 184 184 123
Width: 489
VWidth: 1955
GlyphClass: 2
Flags: HW
HStem: -469 44<63 214>
VStem: 281 157<-385 -194>
LayerCount: 2
Fore
SplineSet
224 -146 m 1
 242 -148 l 2
 353 -160 438 -190 438 -275 c 0
 438 -395 317 -469 183 -469 c 0
 138 -469 91 -459 46 -440 c 1
 55 -417 l 1
 80 -422 103 -425 125 -425 c 0
 223 -425 281 -369 281 -273 c 0
 281 -202 230 -166 174 -157 c 1
 213 -39 l 1
 261 -39 l 1
 224 -146 l 1
EndSplineSet
EndChar

StartChar: onesuperior
Encoding: 185 185 124
Width: 490
VWidth: 2007
GlyphClass: 2
Flags: HW
HStem: 725 96<93 179 345 431> 1221 77<93 177>
VStem: 179 165<821 1229>
LayerCount: 2
Fore
SplineSet
179 1229 m 1
 93 1221 l 1
 93 1299 l 1
 159 1304 220 1327 273 1365 c 1
 345 1365 l 1
 345 821 l 1
 431 821 l 1
 431 725 l 1
 93 725 l 1
 93 821 l 1
 179 821 l 1
 179 1229 l 1
EndSplineSet
EndChar

StartChar: guillemotright
Encoding: 187 187 126
Width: 968
VWidth: 1990
GlyphClass: 2
Flags: HW
LayerCount: 2
Fore
SplineSet
581 491 m 1
 775 626 l 1
 581 755 l 1
 581 1062 l 1
 917 788 l 1
 917 464 l 1
 581 183 l 1
 581 491 l 1
111 491 m 1
 325 626 l 1
 111 755 l 1
 111 1062 l 1
 447 788 l 1
 447 464 l 1
 111 183 l 1
 111 491 l 1
EndSplineSet
EndChar

StartChar: questiondown
Encoding: 191 191 130
Width: 897
VWidth: 1994
GlyphClass: 2
Flags: HW
LayerCount: 2
Fore
SplineSet
798 341 m 1
 819 103 l 1
 687 51 572 26 477 26 c 0
 266 26 65 137 65 364 c 0
 65 563 227 623 366 692 c 1
 423 722 472 749 473 852 c 1
 673 852 l 1
 689 797 l 1
 700 765 704 740 704 717 c 0
 704 579 547 549 444 452 c 0
 429 438 416 419 416 395 c 0
 416 321 488 303 571 303 c 0
 655 303 734 316 798 341 c 1
565 1042 m 0
 478 1042 405 1113 405 1211 c 0
 405 1313 476 1382 565 1382 c 0
 668 1382 754 1311 754 1211 c 0
 754 1112 667 1042 565 1042 c 0
EndSplineSet
EndChar

StartChar: AE
Encoding: 198 198 137
Width: 1757
VWidth: 1994
GlyphClass: 2
Flags: HW
LayerCount: 2
Fore
SplineSet
391 57 m 1
 29 57 l 1
 463 1351 l 1
 1499 1351 l 1
 1542 1111 l 1
 1021 1111 l 1
 1077 808 l 1
 1547 808 l 1
 1584 618 l 1
 1122 618 l 1
 1189 295 l 1
 1682 295 l 1
 1725 57 l 1
 872 57 l 1
 830 316 l 1
 468 316 l 1
 391 57 l 1
692 1161 m 1
 523 500 l 1
 795 500 l 1
 692 1161 l 1
EndSplineSet
EndChar

StartChar: Eth
Encoding: 208 208 147
Width: 1466
VWidth: 1993
GlyphClass: 2
Flags: HW
LayerCount: 2
Fore
SplineSet
737 1320 m 0
 1042 1320 1256 1169 1354 947 c 0
 1387 871 1404 788 1404 698 c 0
 1404 310 1111 56 737 56 c 0
 208 56 l 1
 208 650 l 1
 32 650 l 1
 32 759 l 1
 208 759 l 1
 208 1320 l 1
 737 1320 l 0
565 352 m 1
 737 352 l 2
 925 352 1030 510 1030 701 c 0
 1030 886 914 1024 737 1024 c 0
 565 1024 l 1
 565 759 l 1
 711 759 l 1
 711 650 l 1
 565 650 l 1
 565 352 l 1
EndSplineSet
EndChar

StartChar: multiply
Encoding: 215 215 154
Width: 804
VWidth: 1986
GlyphClass: 2
Flags: HW
LayerCount: 2
Fore
SplineSet
369 514 m 1
 79 843 l 1
 119 883 l 1
 400 555 l 1
 679 883 l 1
 719 843 l 1
 430 514 l 1
 711 195 l 1
 673 158 l 1
 400 479 l 1
 125 158 l 1
 87 195 l 1
 369 514 l 1
EndSplineSet
EndChar

StartChar: Oslash
Encoding: 216 216 155
Width: 1485
VWidth: 1992
GlyphClass: 2
Flags: HW
LayerCount: 2
Fore
SplineSet
576 29 m 1
 563 33 l 2
 298 117 93 335 93 706 c 0
 93 1122 379 1408 759 1408 c 0
 802 1408 842 1404 880 1399 c 0
 892 1397 l 1
 950 1637 l 1
 1019 1637 l 1
 957 1373 l 1
 970 1369 l 0
 1227 1280 1423 1064 1423 696 c 0
 1423 265 1148 -4 759 -4 c 0
 721 -4 685 -1 651 3 c 0
 639 5 l 1
 566 -300 l 1
 500 -300 l 1
 576 29 l 1
825 1103 m 1
 790 1103 l 2
 786 1103 775 1105 761 1107 c 0
 760 1107 l 1
 759 1107 l 0
 558 1104 465 918 465 717 c 0
 465 550 529 437 630 370 c 0
 647 359 l 1
 825 1103 l 1
887 1031 m 1
 709 296 l 1
 759 296 l 0
 958 296 1051 479 1051 674 c 0
 1051 820 1003 937 920 1004 c 0
 887 1031 l 1
EndSplineSet
EndChar

StartChar: Thorn
Encoding: 222 222 161
Width: 1191
VWidth: 1994
GlyphClass: 2
Flags: HW
LayerCount: 2
Fore
SplineSet
506 1351 m 1
 506 1215 l 1
 592 1215 l 0
 899 1215 1161 1106 1161 796 c 0
 1161 510 888 383 608 383 c 0
 506 383 l 1
 506 57 l 1
 155 57 l 1
 155 1351 l 1
 506 1351 l 1
506 606 m 1
 518 604 l 2
 547 600 575 598 609 598 c 0
 727 598 834 655 834 796 c 0
 834 933 719 990 609 990 c 0
 506 990 l 1
 506 606 l 1
EndSplineSet
EndChar

StartChar: germandbls
Encoding: 223 223 162
Width: 1302
VWidth: 1993
GlyphClass: 2
Flags: HW
LayerCount: 2
Fore
SplineSet
677 746 m 1
 677 893 l 1
 745 912 828 960 828 1064 c 0
 828 1176 721 1206 641 1206 c 0
 552 1206 483 1144 483 1045 c 0
 483 26 l 1
 130 -2 l 1
 130 1116 l 0
 130 1325 413 1409 645 1409 c 0
 828 1409 974 1343 1042 1231 c 1
 1066 1194 1078 1154 1078 1106 c 0
 1078 980 1021 897 951 849 c 0
 900 814 l 1
 958 795 l 0
 1114 746 1266 613 1266 405 c 0
 1266 84 1028 -61 735 -61 c 0
 719 -61 695 -60 675 -60 c 0
 666 -60 652 -60 642 -60 c 1
 642 198 l 1
 664 197 681 196 703 196 c 0
 840 196 913 316 913 465 c 0
 913 626 793 711 677 746 c 1
EndSplineSet
EndChar

StartChar: ae
Encoding: 230 230 169
Width: 2001
VWidth: 1986
GlyphClass: 2
Flags: HW
LayerCount: 2
Fore
SplineSet
1720 664 m 1
 1715 680 l 2
 1686 771 1625 838 1512 838 c 0
 1374 838 1310 736 1306 603 c 0
 1306 585 l 1
 1720 664 l 1
820 186 m 0
 769 74 686 -10 533 -10 c 0
 274 -10 91 235 91 520 c 0
 91 758 218 921 372 996 c 0
 424 1021 478 1034 535 1034 c 0
 683 1034 775 930 819 809 c 0
 873 661 l 1
 873 1032 l 1
 1186 1008 l 1
 1186 882 l 1
 1233 927 l 0
 1308 999 1399 1034 1512 1034 c 0
 1787 1034 1958 839 1958 530 c 0
 1958 521 1958 511 1957 503 c 1
 1313 419 l 1
 1319 401 l 0
 1360 279 1443 214 1586 214 c 0
 1677 214 1777 236 1876 273 c 1
 1914 60 l 1
 1784 12 1647 -10 1497 -10 c 0
 1384 -10 1297 41 1233 100 c 0
 1186 142 l 1
 1186 18 l 1
 873 -8 l 1
 873 302 l 1
 820 186 l 0
873 501 m 0
 873 502 l 1
 873 521 l 1
 873 522 l 0
 867 655 780 765 659 765 c 0
 535 765 441 656 441 512 c 0
 441 368 536 259 659 259 c 0
 781 259 867 368 873 501 c 0
EndSplineSet
EndChar

StartChar: eth
Encoding: 240 240 179
Width: 1179
VWidth: 1994
GlyphClass: 2
Flags: HW
LayerCount: 2
Fore
SplineSet
1020 1132 m 1
 1028 1117 l 2
 1088 998 1120 859 1120 698 c 0
 1120 369 990 145 791 47 c 0
 727 14 655 -3 575 -3 c 0
 295 -3 56 145 56 441 c 0
 56 715 237 844 494 844 c 0
 590 844 653 815 713 762 c 0
 766 715 l 1
 757 789 l 0
 747 877 731 937 709 993 c 0
 704 1007 l 1
 576 954 l 1
 555 1017 l 1
 678 1068 l 1
 625 1098 l 0
 596 1114 564 1123 530 1123 c 0
 456 1123 360 1106 244 1076 c 1
 158 1318 l 1
 309 1381 443 1411 575 1411 c 0
 745 1411 870 1336 979 1193 c 0
 985 1184 l 1
 1118 1232 l 1
 1141 1175 l 1
 1020 1132 l 1
757 585 m 1
 748 589 l 2
 695 612 634 627 566 627 c 0
 471 627 397 556 397 440 c 0
 397 319 481 260 575 260 c 0
 723 260 744 452 756 574 c 0
 757 585 l 1
EndSplineSet
EndChar

StartChar: divide
Encoding: 247 247 186
Width: 789
VWidth: 1987
GlyphClass: 2
Flags: HW
LayerCount: 2
Fore
SplineSet
742 497 m 1
 64 497 l 1
 64 549 l 1
 742 549 l 1
 742 497 l 1
402 359 m 0
 473 359 536 298 536 213 c 0
 536 126 474 69 402 69 c 0
 329 69 265 127 265 213 c 0
 265 300 329 359 402 359 c 0
402 979 m 0
 472 979 536 917 536 833 c 0
 536 746 474 689 402 689 c 0
 327 689 265 745 265 833 c 0
 265 918 331 979 402 979 c 0
EndSplineSet
EndChar

StartChar: oslash
Encoding: 248 248 187
Width: 1101
VWidth: 1986
GlyphClass: 2
Flags: HW
LayerCount: 2
Fore
SplineSet
686 1017 m 1
 698 1013 l 2
 892 945 1050 793 1050 513 c 0
 1050 171 815 -10 521 -10 c 2
 508 -10 l 2
 501 -10 493 -8 484 -6 c 2
 471 -3 l 1
 441 -146 l 1
 395 -146 l 1
 429 17 l 1
 418 21 l 2
 227 91 74 239 74 518 c 0
 74 857 297 1032 587 1034 c 1
 603 1032 603 1035 616 1033 c 0
 617 1032 l 2
 642 1032 l 1
 673 1174 l 1
 720 1174 l 1
 687 1023 l 1
 686 1017 l 1
630 742 m 1
 525 262 l 1
 564 269 l 2
 669 286 751 384 751 514 c 0
 751 604 713 676 663 716 c 2
 630 742 l 1
589 760 m 1
 571 759 l 2
 443 752 370 653 370 514 c 0
 370 426 405 354 452 313 c 2
 485 284 l 1
 589 760 l 1
EndSplineSet
EndChar

StartChar: thorn
Encoding: 254 254 193
Width: 1281
VWidth: 1984
GlyphClass: 2
Flags: HW
LayerCount: 2
Fore
SplineSet
528 836 m 0
 585 970 672 1032 797 1032 c 0
 1049 1032 1232 795 1232 510 c 0
 1232 246 1084 69 904 6 c 0
 870 -7 835 -13 799 -13 c 0
 659 -13 576 72 528 184 c 0
 476 303 l 1
 476 -472 l 1
 130 -472 l 1
 130 1318 l 1
 476 1371 l 1
 476 714 l 1
 528 836 l 0
681 256 m 0
 799 256 890 368 890 510 c 0
 890 656 799 763 681 763 c 0
 564 763 479 656 476 519 c 1
 476 510 l 0
 476 369 564 256 681 256 c 0
EndSplineSet
EndChar

StartChar: Dcroat
Encoding: 272 272 211
Width: 1416
VWidth: 1993
GlyphClass: 2
Flags: HW
LayerCount: 2
Fore
SplineSet
691 1320 m 0
 993 1320 1206 1170 1304 948 c 0
 1337 872 1354 789 1354 698 c 0
 1354 312 1060 56 691 56 c 0
 158 56 l 1
 158 625 l 1
 104 625 l 1
 104 734 l 1
 158 734 l 1
 158 1320 l 1
 691 1320 l 0
520 352 m 1
 691 352 l 2
 877 352 981 510 981 701 c 0
 981 885 865 1024 691 1024 c 0
 520 1024 l 1
 520 734 l 1
 638 734 l 1
 638 625 l 1
 520 625 l 1
 520 352 l 1
EndSplineSet
EndChar

StartChar: dcroat
Encoding: 273 273 212
Width: 1282
VWidth: 1993
GlyphClass: 2
Flags: HW
LayerCount: 2
Fore
SplineSet
830 330 m 1
 778 204 l 2
 730 86 651 -3 507 -3 c 0
 279 -3 77 246 77 520 c 0
 77 758 203 925 354 1002 c 1
 404 1028 457 1041 512 1041 c 0
 639 1041 727 979 785 845 c 0
 837 725 l 1
 837 1147 l 1
 711 1147 l 1
 711 1256 l 1
 837 1256 l 1
 837 1328 l 1
 1179 1380 l 1
 1179 1256 l 1
 1243 1256 l 1
 1243 1147 l 1
 1179 1147 l 1
 1179 29 l 1
 830 29 l 1
 830 330 l 1
631 773 m 0
 511 773 422 662 420 519 c 1
 420 376 508 266 626 266 c 0
 742 266 827 377 830 513 c 1
 837 523 l 1
 837 529 l 0
 832 661 748 773 631 773 c 0
EndSplineSet
EndChar

StartChar: Hbar
Encoding: 294 294 233
Width: 1496
VWidth: 1993
GlyphClass: 2
Flags: HW
LayerCount: 2
Fore
SplineSet
169 995 m 1
 113 995 l 1
 113 1105 l 1
 169 1105 l 1
 169 1320 l 1
 539 1320 l 1
 539 1105 l 1
 986 1105 l 1
 986 1320 l 1
 1357 1320 l 1
 1357 1105 l 1
 1415 1105 l 1
 1415 995 l 1
 1357 995 l 1
 1357 56 l 1
 986 56 l 1
 986 586 l 1
 539 586 l 1
 539 56 l 1
 169 56 l 1
 169 995 l 1
539 995 m 1
 539 813 l 1
 986 813 l 1
 986 995 l 1
 539 995 l 1
EndSplineSet
EndChar

StartChar: hbar
Encoding: 295 295 234
Width: 1264
VWidth: 1995
GlyphClass: 2
Flags: HW
LayerCount: 2
Fore
SplineSet
828 87 m 1
 828 550 l 2
 828 647 782 774 673 774 c 0
 548 774 464 665 464 536 c 0
 464 87 l 1
 126 87 l 1
 126 1149 l 1
 9 1149 l 1
 9 1258 l 1
 126 1258 l 1
 126 1329 l 1
 464 1382 l 1
 464 1258 l 1
 654 1258 l 1
 654 1149 l 1
 464 1149 l 1
 464 677 l 1
 517 813 l 0
 567 942 649 1043 792 1043 c 0
 1030 1043 1173 823 1173 557 c 0
 1173 87 l 1
 828 87 l 1
EndSplineSet
EndChar

StartChar: dotlessi
Encoding: 305 305 244
Width: 675
VWidth: 1984
GlyphClass: 2
Flags: HW
HStem: -12 261<323 635>
VStem: 110 359<282 946>
LayerCount: 2
Fore
SplineSet
110 946 m 1
 469 946 l 1
 469 372 l 0
 469 301 515 249 587 249 c 0
 605 249 626 253 642 258 c 1
 658 43 l 1
 587 6 514 -12 431 -12 c 0
 216 -12 110 129 110 353 c 0
 110 946 l 1
EndSplineSet
EndChar

StartChar: kgreenlandic
Encoding: 312 312 251
Width: 1166
VWidth: 1984
GlyphClass: 2
Flags: HW
LayerCount: 2
Fore
SplineSet
1114 268 m 1
 1088 -7 l 1
 1058 -9 1033 -10 1007 -10 c 0
 752 -10 686 119 629 341 c 0
 618 384 l 1
 473 255 l 1
 473 19 l 1
 128 19 l 1
 128 944 l 1
 473 944 l 1
 473 590 l 1
 845 944 l 1
 1025 944 l 1
 1139 808 l 1
 828 550 l 1
 842 476 l 1
 855 424 l 1
 880 333 938 263 1061 263 c 0
 1074 263 1093 265 1114 268 c 1
EndSplineSet
EndChar

StartChar: Lslash
Encoding: 321 321 260
Width: 1014
VWidth: 1994
GlyphClass: 2
Flags: HW
LayerCount: 2
Fore
SplineSet
203 700 m 1
 26 655 l 1
 26 762 l 1
 203 807 l 1
 203 1351 l 1
 534 1351 l 1
 534 900 l 1
 803 976 l 1
 803 868 l 1
 534 792 l 1
 534 289 l 1
 980 289 l 1
 980 57 l 1
 203 57 l 1
 203 700 l 1
EndSplineSet
EndChar

StartChar: lslash
Encoding: 322 322 261
Width: 727
VWidth: 1993
GlyphClass: 2
Flags: HW
LayerCount: 2
Fore
SplineSet
676 268 m 1
 693 52 l 1
 617 15 539 -3 458 -3 c 0
 293 -3 195 143 195 378 c 0
 195 707 l 1
 30 655 l 1
 30 767 l 1
 195 820 l 1
 195 1328 l 1
 494 1380 l 1
 494 927 l 1
 663 982 l 1
 663 869 l 1
 494 814 l 1
 494 397 l 0
 494 312 538 258 617 258 c 0
 637 258 657 262 676 268 c 1
EndSplineSet
EndChar

StartChar: Eng
Encoding: 330 330 269
Width: 1456
VWidth: 1982
GlyphClass: 2
Flags: HW
LayerCount: 2
Fore
SplineSet
1039 1280 m 1
 1328 1280 l 1
 1328 -43 l 0
 1328 -290 1218 -472 996 -472 c 0
 918 -472 825 -449 720 -405 c 1
 785 -213 l 1
 832 -228 866 -235 895 -235 c 0
 993 -235 1041 -160 1041 -43 c 0
 1041 -33 l 1
 445 776 l 1
 445 16 l 1
 158 16 l 1
 158 1280 l 1
 500 1280 l 1
 1039 526 l 1
 1039 1280 l 1
EndSplineSet
EndChar

StartChar: eng
Encoding: 331 331 270
Width: 1260
VWidth: 1977
GlyphClass: 2
Flags: HW
LayerCount: 2
Fore
SplineSet
807 1025 m 0
 1036 1025 1168 779 1168 502 c 2
 1168 -18 l 0
 1168 -298 1033 -473 779 -473 c 0
 681 -473 589 -443 505 -386 c 1
 571 -190 l 1
 612 -203 645 -210 677 -210 c 0
 775 -210 825 -135 825 -18 c 0
 825 514 l 0
 825 618 780 756 672 756 c 0
 558 756 472 660 469 539 c 1
 469 69 l 1
 124 69 l 1
 124 966 l 1
 469 1020 l 1
 469 674 l 1
 520 798 l 0
 572 923 661 1025 807 1025 c 0
EndSplineSet
EndChar

StartChar: OE
Encoding: 338 338 277
Width: 1937
VWidth: 1993
GlyphClass: 2
Flags: HW
LayerCount: 2
Fore
SplineSet
517 1329 m 0
 567 1347 620 1356 678 1356 c 0
 806 1356 882 1306 967 1251 c 0
 989 1237 l 1
 989 1319 l 1
 1844 1319 l 1
 1844 1079 l 1
 1381 1079 l 1
 1381 807 l 1
 1803 807 l 1
 1803 616 l 1
 1381 616 l 1
 1381 279 l 1
 1844 279 l 1
 1844 29 l 1
 983 29 l 1
 983 109 l 1
 942 85 l 0
 837 25 744 -4 663 -4 c 0
 339 -4 100 317 100 687 c 0
 100 1010 288 1246 517 1329 c 0
983 999 m 1
 972 1001 l 2
 882 1022 792 1035 711 1035 c 0
 531 1035 476 829 476 664 c 0
 476 497 526 294 711 294 c 0
 810 294 896 305 973 326 c 0
 983 329 l 1
 983 999 l 1
EndSplineSet
EndChar

StartChar: oe
Encoding: 339 339 278
Width: 1738
VWidth: 1986
GlyphClass: 2
Flags: HW
LayerCount: 2
Fore
SplineSet
943 883 m 1
 953 893 l 2
 1047 984 1152 1034 1278 1034 c 0
 1541 1034 1694 833 1694 530 c 0
 1694 521 1694 510 1694 503 c 1
 1107 419 l 1
 1112 402 l 0
 1149 285 1213 214 1351 214 c 0
 1452 214 1538 244 1613 273 c 1
 1651 59 l 1
 1540 13 1420 -10 1289 -10 c 0
 1154 -10 1047 47 953 151 c 0
 943 163 l 1
 932 151 l 0
 842 47 739 -10 608 -10 c 0
 306 -10 86 187 86 515 c 0
 86 778 228 924 410 998 c 0
 470 1022 537 1034 610 1034 c 0
 735 1034 839 984 933 893 c 0
 943 883 l 1
806 514 m 0
 806 646 729 767 610 767 c 0
 488 767 414 648 414 514 c 0
 414 381 490 260 610 260 c 0
 730 260 806 386 806 514 c 0
1455 665 m 1
 1451 680 l 2
 1426 776 1374 838 1278 838 c 0
 1145 838 1106 717 1101 602 c 0
 1100 583 l 1
 1455 665 l 1
EndSplineSet
EndChar

StartChar: Tbar
Encoding: 358 358 297
Width: 1060
VWidth: 1993
GlyphClass: 2
Flags: HW
LayerCount: 2
Fore
SplineSet
718 56 m 1
 364 56 l 1
 364 554 l 1
 229 554 l 1
 229 663 l 1
 364 663 l 1
 364 1091 l 1
 89 1091 l 1
 89 1320 l 1
 993 1320 l 1
 993 1091 l 1
 718 1091 l 1
 718 663 l 1
 853 663 l 1
 853 554 l 1
 718 554 l 1
 718 56 l 1
EndSplineSet
EndChar

StartChar: tbar
Encoding: 359 359 298
Width: 784
VWidth: 1993
GlyphClass: 2
Flags: HW
LayerCount: 2
Fore
SplineSet
707 553 m 1
 492 553 l 1
 492 405 l 0
 492 304 564 258 646 258 c 0
 667 258 689 262 709 268 c 1
 721 53 l 1
 639 15 553 -3 464 -3 c 0
 298 -3 192 144 192 382 c 0
 192 553 l 1
 83 553 l 1
 83 663 l 1
 194 663 l 1
 194 814 l 1
 70 814 l 1
 70 1006 l 1
 194 1006 l 1
 194 1259 l 1
 492 1373 l 1
 492 1005 l 1
 719 1005 l 1
 719 814 l 1
 492 814 l 1
 492 663 l 1
 707 663 l 1
 707 553 l 1
EndSplineSet
EndChar

StartChar: florin
Encoding: 402 402 323
Width: 756
VWidth: 1998
GlyphClass: 2
Flags: HW
LayerCount: 2
Fore
SplineSet
67 1018 m 1
 188 1018 l 1
 188 1152 l 0
 188 1399 286 1542 475 1542 c 0
 548 1542 646 1520 754 1477 c 1
 743 1267 l 1
 699 1280 663 1286 630 1286 c 0
 540 1286 495 1230 495 1139 c 0
 495 1018 l 1
 737 1018 l 1
 737 831 l 1
 495 831 l 1
 495 90 l 1
 188 90 l 1
 188 831 l 1
 67 831 l 1
 67 1018 l 1
EndSplineSet
EndChar

StartChar: dotlessj
Encoding: 567 567 352
Width: 507
VWidth: 1976
GlyphClass: 2
Flags: HW
LayerCount: 2
Fore
SplineSet
73 938 m 1
 399 938 l 1
 399 39 l 0
 399 -239 261 -414 33 -414 c 0
 -58 -414 -159 -384 -251 -327 c 1
 -179 -131 l 1
 -129 -146 -91 -153 -60 -153 c 0
 32 -153 73 -77 73 39 c 0
 73 938 l 1
EndSplineSet
EndChar

StartChar: circumflex
Encoding: 710 710 353
Width: 847
VWidth: 2021
GlyphClass: 2
Flags: HW
LayerCount: 2
Fore
SplineSet
315 1169 m 1
 63 1169 l 1
 276 1601 l 1
 545 1601 l 1
 759 1169 l 1
 507 1169 l 1
 452 1358 l 1
 409 1531 l 1
 370 1358 l 1
 315 1169 l 1
EndSplineSet
EndChar

StartChar: caron
Encoding: 711 711 354
Width: 847
VWidth: 2021
GlyphClass: 2
Flags: HW
LayerCount: 2
Fore
SplineSet
369 1412 m 1
 409 1234 l 1
 433 1336 l 0
 453 1420 484 1516 507 1601 c 1
 759 1601 l 1
 545 1169 l 1
 276 1169 l 1
 63 1601 l 1
 315 1601 l 1
 369 1412 l 1
EndSplineSet
EndChar

StartChar: breve
Encoding: 728 728 355
Width: 736
VWidth: 2019
GlyphClass: 2
Flags: HW
LayerCount: 2
Fore
SplineSet
82 1464 m 1
 243 1464 l 1
 256 1393 312 1345 376 1345 c 0
 443 1345 491 1396 501 1464 c 1
 668 1464 l 1
 656 1290 541 1186 376 1186 c 0
 209 1186 94 1292 82 1464 c 1
EndSplineSet
EndChar

StartChar: dotaccent
Encoding: 729 729 356
Width: 558
VWidth: 2020
GlyphClass: 2
Flags: HW
LayerCount: 2
Fore
SplineSet
286 1541 m 0
 391 1541 478 1469 478 1372 c 0
 478 1271 394 1201 286 1201 c 0
 176 1201 94 1270 94 1372 c 0
 94 1471 180 1541 286 1541 c 0
EndSplineSet
EndChar

StartChar: ring
Encoding: 730 730 357
Width: 736
VWidth: 2026
GlyphClass: 2
Flags: HW
LayerCount: 2
Fore
SplineSet
242 1500 m 0
 242 1413 303 1352 377 1352 c 0
 454 1352 505 1416 505 1500 c 0
 505 1584 450 1652 374 1652 c 0
 298 1652 242 1585 242 1500 c 0
377 1811 m 0
 552 1811 670 1690 670 1500 c 0
 670 1310 551 1193 377 1193 c 0
 202 1193 82 1311 82 1500 c 0
 82 1691 202 1811 377 1811 c 0
EndSplineSet
EndChar

StartChar: ogonek
Encoding: 731 731 358
Width: 569
VWidth: 1955
GlyphClass: 2
Flags: HW
LayerCount: 2
Fore
SplineSet
440 -418 m 1
 440 -436 l 1
 381 -459 329 -469 279 -469 c 0
 167 -469 93 -425 93 -329 c 0
 93 -239 177 -175 240 -121 c 0
 295 -75 l 0
 309 -63 327 -52 341 -39 c 1
 391 -39 l 1
 359 -102 327 -157 290 -210 c 1
 271 -240 l 1
 257 -262 250 -298 249 -324 c 0
 249 -324 l 1
 249 -325 l 0
 249 -393 303 -425 375 -425 c 0
 392 -425 416 -422 440 -418 c 1
EndSplineSet
EndChar

StartChar: tilde
Encoding: 732 732 359
Width: 974
VWidth: 2021
GlyphClass: 2
Flags: HW
LayerCount: 2
Fore
SplineSet
562 1523 m 2
 562 1523 l 0
 560 1524 557 1526 554 1528 c 2
 553 1529 l 2
 550 1531 546 1534 543 1537 c 2
 507 1563 l 1
 486 1575 456 1588 426 1588 c 0
 400 1588 376 1582 351 1567 c 0
 252 1514 185 1399 137 1264 c 1
 316 1191 l 1
 333 1236 363 1299 425 1299 c 0
 451 1299 474 1288 496 1266 c 0
 559 1224 601 1176 683 1176 c 0
 768 1176 831 1230 878 1306 c 0
 883 1313 887 1321 892 1328 c 0
 919 1372 940 1422 958 1471 c 1
 780 1558 l 1
 759 1506 726 1468 682 1465 c 0
 680 1465 679 1465 677 1465 c 0
 645 1465 620 1480 599 1499 c 2
 598 1499 l 1
 598 1499 l 1
 562 1523 l 2
569 1552 m 2
 612 1524 l 2
 615 1523 617 1521 619 1520 c 0
 636 1512 653 1508 677 1508 c 0
 712 1508 740 1531 759 1574 c 2
 765 1595 l 1
 982 1506 l 2
 986 1504 991 1503 995 1501 c 1
 990 1475 l 2
 971 1423 948 1364 916 1312 c 0
 912 1305 907 1298 902 1291 c 0
 852 1210 781 1147 683 1147 c 0
 591 1147 540 1202 482 1241 c 0
 465 1251 446 1256 425 1256 c 0
 377 1256 353 1214 337 1175 c 2
 332 1154 l 1
 112 1243 l 2
 109 1244 104 1246 100 1248 c 1
 105 1270 l 2
 154 1408 225 1534 339 1593 c 0
 367 1609 396 1617 426 1617 c 0
 463 1617 496 1602 520 1588 c 2
 520 1588 l 2
 521 1587 l 2
 560 1560 l 1
 561 1558 l 2
 564 1555 567 1553 569 1552 c 2
EndSplineSet
EndChar

StartChar: hungarumlaut
Encoding: 733 733 360
Width: 1158
VWidth: 2030
GlyphClass: 2
Flags: HW
LayerCount: 2
Fore
SplineSet
261 1981 m 1
 559 1886 l 1
 318 1241 l 1
 134 1294 l 1
 261 1981 l 1
783 1980 m 1
 1076 1828 l 1
 723 1243 l 1
 571 1328 l 1
 783 1980 l 1
EndSplineSet
EndChar

StartChar: uni030F
Encoding: 783 783 361
Width: 1157
VWidth: 2030
GlyphClass: 2
Flags: HW
LayerCount: 2
Fore
SplineSet
603 1886 m 1
 903 1981 l 1
 1030 1294 l 1
 846 1241 l 1
 603 1886 l 1
88 1828 m 1
 381 1980 l 1
 592 1328 l 1
 439 1243 l 1
 88 1828 l 1
EndSplineSet
EndChar

StartChar: uni0311
Encoding: 785 785 362
Width: 736
VWidth: 2020
GlyphClass: 2
Flags: HW
LayerCount: 2
Fore
SplineSet
376 1339 m 0
 307 1339 255 1287 243 1218 c 1
 63 1218 l 1
 74 1408 196 1526 376 1526 c 0
 557 1526 677 1405 689 1218 c 1
 509 1218 l 1
 497 1290 444 1339 376 1339 c 0
EndSplineSet
EndChar

StartChar: Delta
Encoding: 916 916 364
Width: 1067
VWidth: 1993
GlyphClass: 2
Flags: HW
LayerCount: 2
Fore
SplineSet
1003 56 m 1
 70 56 l 1
 399 1320 l 1
 670 1320 l 1
 1003 56 l 1
536 1177 m 1
 342 220 l 1
 735 220 l 1
 536 1177 l 1
EndSplineSet
EndChar

StartChar: mu
Encoding: 956 956 366
Width: 1129
VWidth: 1979
GlyphClass: 2
Flags: HW
LayerCount: 2
Fore
SplineSet
469 299 m 1
 475 295 l 2
 514 266 558 248 605 248 c 0
 680 248 737 310 737 394 c 0
 737 941 l 1
 1063 941 l 1
 1063 407 l 0
 1063 160 903 -17 681 -17 c 0
 622 -17 561 -1 497 33 c 0
 459 54 l 1
 459 -248 l 1
 135 -272 l 1
 135 941 l 1
 469 941 l 1
 469 299 l 1
EndSplineSet
EndChar

StartChar: pi
Encoding: 960 960 367
Width: 1284
VWidth: 1984
GlyphClass: 2
Flags: HW
LayerCount: 2
Fore
SplineSet
65 43 m 1
 82 258 l 1
 101 252 118 249 137 249 c 0
 209 249 254 301 254 372 c 0
 254 946 l 1
 1174 946 l 1
 1174 22 l 1
 827 22 l 1
 827 837 l 1
 586 837 l 1
 586 353 l 0
 586 128 489 -12 292 -12 c 0
 209 -12 133 7 65 43 c 1
EndSplineSet
EndChar

StartChar: endash
Encoding: 8211 8211 368
Width: 834
VWidth: 1981
GlyphClass: 2
Flags: HW
LayerCount: 2
Fore
SplineSet
743 334 m 1
 110 334 l 1
 110 444 l 1
 743 444 l 1
 743 334 l 1
EndSplineSet
EndChar

StartChar: emdash
Encoding: 8212 8212 369
Width: 1101
VWidth: 1981
GlyphClass: 2
Flags: HW
LayerCount: 2
Fore
SplineSet
1008 334 m 1
 116 334 l 1
 116 444 l 1
 1008 444 l 1
 1008 334 l 1
EndSplineSet
EndChar

StartChar: quoteleft
Encoding: 8216 8216 370
Width: 528
VWidth: 2009
GlyphClass: 2
Flags: HW
LayerCount: 2
Fore
SplineSet
316 1390 m 0
 349 1394 392 1395 436 1396 c 1
 436 1224 l 1
 368 1224 l 0
 277 1224 254 1175 254 1093 c 0
 254 1064 l 1
 436 1064 l 1
 436 753 l 1
 91 753 l 1
 91 760 91 766 91 773 c 0
 91 793 91 817 92 846 c 0
 95 972 l 1
 103 1226 110 1366 316 1390 c 0
EndSplineSet
EndChar

StartChar: quoteright
Encoding: 8217 8217 371
Width: 519
VWidth: 2007
GlyphClass: 2
Flags: HW
LayerCount: 2
Fore
SplineSet
340 760 m 0
 286 731 204 723 107 722 c 1
 107 894 l 1
 127 893 144 892 163 892 c 0
 257 892 292 932 292 1025 c 0
 292 1054 l 1
 107 1054 l 1
 107 1365 l 1
 452 1365 l 1
 450 1272 l 1
 446 1046 460 825 340 760 c 0
EndSplineSet
EndChar

StartChar: quotesinglbase
Encoding: 8218 8218 372
Width: 389
VWidth: 1966
GlyphClass: 2
Flags: HW
LayerCount: 2
Fore
SplineSet
258 -216 m 1
 122 -216 l 1
 87 214 l 1
 307 214 l 1
 258 -216 l 1
EndSplineSet
EndChar

StartChar: quotedblleft
Encoding: 8220 8220 373
Width: 1020
VWidth: 2009
GlyphClass: 2
Flags: HW
LayerCount: 2
Fore
SplineSet
326 1390 m 1
 355 1394 391 1395 429 1396 c 1
 429 1224 l 1
 372 1224 l 0
 287 1224 264 1174 264 1093 c 0
 264 1064 l 1
 429 1064 l 1
 429 753 l 1
 101 753 l 1
 101 760 101 766 101 773 c 0
 101 793 101 817 102 846 c 0
 105 972 l 1
 113 1226 120 1366 326 1390 c 1
813 1391 m 0
 845 1394 886 1395 928 1396 c 1
 928 1224 l 1
 861 1224 l 0
 771 1224 744 1176 744 1093 c 0
 744 1064 l 1
 928 1064 l 1
 928 753 l 1
 600 753 l 1
 600 760 600 766 600 773 c 0
 600 793 600 817 601 846 c 0
 603 972 l 0
 609 1227 617 1371 813 1391 c 0
EndSplineSet
EndChar

StartChar: quotedblright
Encoding: 8221 8221 374
Width: 1011
VWidth: 2007
GlyphClass: 2
Flags: HW
LayerCount: 2
Fore
SplineSet
348 760 m 1
 295 731 214 723 117 722 c 1
 117 894 l 1
 137 893 154 892 173 892 c 0
 267 892 302 932 302 1025 c 0
 302 1054 l 1
 117 1054 l 1
 117 1365 l 1
 446 1365 l 1
 444 1272 l 1
 441 1046 452 824 348 760 c 1
731 730 m 0
 698 725 658 723 616 722 c 1
 616 894 l 1
 633 893 647 892 664 892 c 0
 751 892 782 934 782 1025 c 0
 782 1054 l 1
 616 1054 l 1
 616 1365 l 1
 944 1365 l 1
 942 1272 l 1
 937 980 963 760 731 730 c 0
EndSplineSet
EndChar

StartChar: quotedblbase
Encoding: 8222 8222 375
Width: 762
VWidth: 1967
GlyphClass: 2
Flags: HW
LayerCount: 2
Fore
SplineSet
635 -169 m 1
 499 -169 l 1
 463 261 l 1
 684 261 l 1
 635 -169 l 1
262 -169 m 1
 126 -169 l 1
 92 261 l 1
 311 261 l 1
 262 -169 l 1
EndSplineSet
EndChar

StartChar: dagger
Encoding: 8224 8224 376
Width: 646
VWidth: 1993
GlyphClass: 2
Flags: HW
LayerCount: 2
Fore
SplineSet
295 921 m 1
 59 921 l 1
 59 985 l 1
 295 985 l 1
 295 1320 l 1
 365 1320 l 1
 365 985 l 1
 601 985 l 1
 601 921 l 1
 365 921 l 1
 365 56 l 1
 295 56 l 1
 295 921 l 1
EndSplineSet
EndChar

StartChar: daggerdbl
Encoding: 8225 8225 377
Width: 678
VWidth: 1993
GlyphClass: 2
Flags: HW
LayerCount: 2
Fore
SplineSet
311 446 m 1
 75 446 l 1
 75 508 l 1
 311 508 l 1
 311 921 l 1
 75 921 l 1
 75 985 l 1
 311 985 l 1
 311 1320 l 1
 381 1320 l 1
 381 985 l 1
 617 985 l 1
 617 921 l 1
 381 921 l 1
 381 508 l 1
 617 508 l 1
 617 446 l 1
 381 446 l 1
 381 56 l 1
 311 56 l 1
 311 446 l 1
EndSplineSet
EndChar

StartChar: bullet
Encoding: 8226 8226 378
Width: 897
VWidth: 1987
GlyphClass: 2
Flags: HW
LayerCount: 2
Fore
SplineSet
459 901 m 0
 667 901 833 761 833 530 c 0
 833 297 665 159 457 159 c 0
 250 159 83 300 83 530 c 0
 83 759 252 901 459 901 c 0
EndSplineSet
EndChar

StartChar: ellipsis
Encoding: 8230 8230 379
Width: 1683
VWidth: 1973
GlyphClass: 2
Flags: HW
LayerCount: 2
Fore
SplineSet
282 345 m 0
 384 345 466 274 466 176 c 0
 466 74 386 5 282 5 c 0
 172 5 90 74 90 176 c 0
 90 275 176 345 282 345 c 0
860 345 m 0
 960 345 1042 274 1042 176 c 0
 1042 74 962 5 860 5 c 0
 755 5 676 73 676 176 c 0
 676 276 758 345 860 345 c 0
1436 345 m 0
 1542 345 1628 274 1628 176 c 0
 1628 74 1545 5 1436 5 c 0
 1330 5 1252 73 1252 176 c 0
 1252 277 1332 345 1436 345 c 0
EndSplineSet
EndChar

StartChar: perthousand
Encoding: 8240 8240 380
Width: 2489
VWidth: 1993
GlyphClass: 2
Flags: HW
LayerCount: 2
Fore
SplineSet
754 56 m 1
 684 56 l 1
 983 1320 l 1
 1057 1320 l 1
 754 56 l 1
1015 381 m 0
 1015 590 1135 738 1331 738 c 0
 1529 738 1650 589 1650 381 c 0
 1650 169 1531 26 1331 26 c 0
 1132 26 1015 172 1015 381 c 0
1470 381 m 0
 1470 466 1442 596 1331 596 c 0
 1218 596 1195 466 1195 381 c 0
 1195 297 1221 164 1331 164 c 0
 1444 164 1470 295 1470 381 c 0
99 1001 m 0
 99 1213 225 1356 427 1356 c 0
 625 1356 743 1208 743 1001 c 0
 743 788 623 646 422 646 c 0
 218 646 99 791 99 1001 c 0
562 1001 m 0
 562 1088 534 1216 422 1216 c 0
 309 1216 285 1087 285 1001 c 0
 285 917 311 782 422 782 c 0
 536 782 562 914 562 1001 c 0
1797 381 m 0
 1797 591 1919 738 2116 738 c 0
 2316 738 2441 588 2441 381 c 0
 2441 169 2319 26 2116 26 c 0
 1917 26 1797 173 1797 381 c 0
2255 381 m 0
 2255 466 2227 596 2116 596 c 0
 2004 596 1978 467 1978 381 c 0
 1978 295 2004 164 2116 164 c 0
 2229 164 2255 295 2255 381 c 0
EndSplineSet
EndChar

StartChar: guilsinglleft
Encoding: 8249 8249 381
Width: 505
VWidth: 1990
GlyphClass: 2
Flags: HW
LayerCount: 2
Fore
SplineSet
60 788 m 1
 416 1063 l 1
 416 756 l 1
 199 626 l 1
 416 491 l 1
 416 182 l 1
 60 464 l 1
 60 788 l 1
EndSplineSet
EndChar

StartChar: guilsinglright
Encoding: 8250 8250 382
Width: 507
VWidth: 1990
GlyphClass: 2
Flags: HW
LayerCount: 2
Fore
SplineSet
101 491 m 1
 316 626 l 1
 101 755 l 1
 101 1063 l 1
 457 788 l 1
 457 464 l 1
 101 182 l 1
 101 491 l 1
EndSplineSet
EndChar

StartChar: fraction
Encoding: 8260 8260 383
Width: 491
VWidth: 1994
GlyphClass: 2
Flags: HW
LayerCount: 2
Fore
SplineSet
155 57 m 1
 22 57 l 1
 331 1351 l 1
 468 1351 l 1
 155 57 l 1
EndSplineSet
EndChar

StartChar: foursuperior
Encoding: 8308 8308 384
Width: 672
VWidth: 2006
GlyphClass: 2
Flags: HW
LayerCount: 2
Fore
SplineSet
351 858 m 1
 52 858 l 1
 52 970 l 1
 327 1333 l 1
 530 1333 l 1
 530 951 l 1
 620 951 l 1
 620 858 l 1
 530 858 l 1
 530 693 l 1
 351 693 l 1
 351 858 l 1
351 1263 m 1
 128 951 l 1
 351 951 l 1
 351 1263 l 1
EndSplineSet
EndChar

StartChar: Euro
Encoding: 8364 8364 385
Width: 1214
VWidth: 1993
GlyphClass: 2
Flags: HW
LayerCount: 2
Fore
SplineSet
201 855 m 1
 204 866 l 2
 276 1143 485 1356 801 1356 c 0
 913 1356 1030 1326 1141 1266 c 1
 1098 1015 l 1
 1011 1045 936 1059 869 1059 c 0
 738 1059 639 1006 585 898 c 0
 564 855 l 1
 842 855 l 1
 842 792 l 1
 551 792 l 1
 549 779 l 0
 546 753 544 726 544 696 c 0
 544 661 548 629 552 600 c 0
 554 588 l 1
 842 588 l 1
 842 529 l 1
 568 529 l 1
 591 486 l 0
 648 377 747 323 880 323 c 0
 968 323 1035 344 1098 368 c 1
 1139 114 l 1
 1028 54 918 26 811 26 c 0
 487 26 281 237 205 518 c 0
 202 529 l 1
 76 529 l 1
 76 588 l 1
 191 588 l 1
 189 604 l 0
 186 633 184 663 184 694 c 0
 184 721 186 749 188 776 c 0
 189 792 l 1
 76 792 l 1
 76 855 l 1
 201 855 l 1
EndSplineSet
EndChar

StartChar: trademark
Encoding: 8482 8482 386
Width: 1830
VWidth: 2005
GlyphClass: 2
Flags: HW
LayerCount: 2
Fore
SplineSet
539 658 m 1
 301 658 l 1
 301 1184 l 1
 130 1184 l 1
 130 1332 l 1
 702 1332 l 1
 702 1184 l 1
 539 1184 l 1
 539 658 l 1
1098 658 m 1
 865 658 l 1
 865 1332 l 1
 1110 1332 l 1
 1287 1008 l 1
 1462 1332 l 1
 1716 1332 l 1
 1716 658 l 1
 1473 658 l 1
 1473 1137 l 1
 1324 835 l 1
 1245 835 l 1
 1098 1138 l 1
 1098 658 l 1
EndSplineSet
EndChar

StartChar: minus
Encoding: 8722 8722 388
Width: 891
VWidth: 1968
GlyphClass: 2
Flags: HW
LayerCount: 2
Fore
SplineSet
794 31 m 1
 116 31 l 1
 116 83 l 1
 794 83 l 1
 794 31 l 1
EndSplineSet
EndChar

StartChar: notequal
Encoding: 8800 8800 393
Width: 686
VWidth: 1986
GlyphClass: 2
Flags: HW
LayerCount: 2
Fore
SplineSet
269 355 m 1
 79 355 l 1
 79 416 l 1
 286 416 l 1
 339 620 l 1
 79 620 l 1
 79 683 l 1
 356 683 l 1
 434 977 l 1
 510 977 l 1
 432 683 l 1
 621 683 l 1
 621 620 l 1
 414 620 l 1
 361 416 l 1
 621 416 l 1
 621 355 l 1
 344 355 l 1
 263 49 l 1
 190 49 l 1
 269 355 l 1
EndSplineSet
EndChar

StartChar: lessequal
Encoding: 8804 8804 394
Width: 848
VWidth: 1997
GlyphClass: 2
Flags: HW
LayerCount: 2
Fore
SplineSet
739 418 m 1
 105 821 l 1
 105 1122 l 1
 739 1501 l 1
 739 1272 l 1
 177 962 l 1
 739 668 l 1
 739 418 l 1
760 60 m 1
 82 60 l 1
 82 112 l 1
 760 112 l 1
 760 60 l 1
EndSplineSet
EndChar

StartChar: greaterequal
Encoding: 8805 8805 395
Width: 849
VWidth: 1997
GlyphClass: 2
Flags: HW
LayerCount: 2
Fore
SplineSet
761 821 m 1
 127 418 l 1
 127 668 l 1
 689 962 l 1
 127 1272 l 1
 127 1501 l 1
 761 1122 l 1
 761 821 l 1
782 60 m 1
 104 60 l 1
 104 112 l 1
 782 112 l 1
 782 60 l 1
EndSplineSet
EndChar

StartChar: lozenge
Encoding: 9674 9674 396
Width: 904
VWidth: 1994
GlyphClass: 2
Flags: HW
LayerCount: 2
Fore
SplineSet
278 710 m 1
 458 97 l 1
 621 710 l 1
 458 1309 l 1
 278 710 l 1
576 57 m 1
 309 57 l 1
 72 710 l 1
 309 1351 l 1
 597 1351 l 1
 847 710 l 1
 576 57 l 1
EndSplineSet
EndChar

StartChar: fi
Encoding: 64257 64257 398
Width: 1581
VWidth: 1996
GlyphClass: 2
Flags: HW
LayerCount: 2
Fore
SplineSet
549 1012 m 1
 1375 1012 l 1
 1375 393 l 0
 1375 317 1420 261 1492 261 c 0
 1510 261 1531 266 1547 271 c 1
 1564 55 l 1
 1494 18 1420 0 1337 0 c 0
 1137 0 1038 149 1038 388 c 1
 1035 821 l 1
 549 821 l 1
 556 60 l 1
 206 60 l 1
 206 821 l 1
 83 821 l 1
 83 1013 l 1
 206 1013 l 1
 206 1150 l 0
 206 1396 305 1540 524 1540 c 0
 610 1540 703 1518 799 1475 c 1
 789 1266 l 1
 747 1279 713 1285 682 1285 c 0
 597 1285 549 1228 549 1137 c 0
 549 1012 l 1
1209 1540 m 0
 1308 1540 1394 1468 1394 1371 c 0
 1394 1269 1311 1200 1209 1200 c 0
 1105 1200 1026 1268 1026 1371 c 0
 1026 1470 1108 1540 1209 1540 c 0
EndSplineSet
EndChar

StartChar: fl
Encoding: 64258 64258 399
Width: 1558
VWidth: 1996
GlyphClass: 2
Flags: HW
LayerCount: 2
Fore
SplineSet
1007 1263 m 1
 995 1265 l 2
 913 1277 831 1284 770 1284 c 0
 639 1284 549 1241 549 1136 c 0
 549 1015 l 1
 783 1015 l 1
 783 829 l 1
 549 829 l 1
 549 88 l 1
 205 88 l 1
 205 829 l 1
 82 829 l 1
 82 1015 l 1
 205 1015 l 1
 205 1149 l 0
 205 1461 507 1503 839 1503 c 0
 1025 1503 1172 1453 1346 1414 c 1
 1346 400 l 0
 1346 316 1390 260 1469 260 c 0
 1489 260 1510 264 1528 270 c 1
 1546 55 l 1
 1469 17 1391 -1 1308 -1 c 0
 1106 -1 1007 148 1007 382 c 0
 1007 1263 l 1
EndSplineSet
EndChar
